<!-- Generator: Adobe Illustrator 23.0.3, SVG Export Plug-In  -->
<svg version="1.1" xmlns="http://www.w3.org/2000/svg" xmlns:xlink="http://www.w3.org/1999/xlink" x="0px" y="0px" width="34px"
	 height="9.5px" viewBox="0 0 34 9.5" style="enable-background:new 0 0 34 9.5;" xml:space="preserve">
<style type="text/css">
	.st0{fill:#FF6200;}
</style>
<defs>
</defs>
<path id="XMLID_1_" class="st0" d="M1.8,5.8c-0.3,0.3-0.6,0.6-1,0.9S0.3,7.3,0,7.6l1.9,1.9c0.3-0.3,0.6-0.6,0.9-1
	c0.3-0.3,0.6-0.6,1-0.9c7.6-6.7,19-6.7,26.6-0.1c0.4,0.3,0.7,0.6,1.1,1c0.3,0.3,0.5,0.6,0.8,0.9L34,7.5c-0.3-0.3-0.5-0.6-0.8-0.8
	c-0.3-0.3-0.7-0.7-1.1-1C23.5-1.9,10.4-1.9,1.8,5.8z"/>
</svg>
