<!-- Generator: Adobe Illustrator 23.0.3, SVG Export Plug-In  -->
<svg version="1.1" xmlns="http://www.w3.org/2000/svg" xmlns:xlink="http://www.w3.org/1999/xlink" x="0px" y="0px" width="26.1px"
	 height="14.5px" viewBox="0 0 26.1 14.5" style="enable-background:new 0 0 26.1 14.5;" xml:space="preserve">
<style type="text/css">
	.st0{fill:#2D74BB;}
	.st1{fill:#005BAC;}
	.st2{fill:#FFFFFF;}
</style>
<defs>
</defs>
<polygon id="XMLID_4_" class="st0" points="14.1,8.6 24.4,14.5 26.1,13.5 20.7,8.5 14.1,7.1 "/>
<polygon id="XMLID_3_" class="st0" points="0,1.2 10.3,7.1 12,6.1 6.6,1.2 1.3,0 "/>
<path id="XMLID_2_" class="st1" d="M11.1,6c1.1-0.6,2.8-0.6,3.9,0C16,6.6,16,7.6,15,8.2c-1.1,0.6-2.8,0.6-3.9,0S10,6.6,11.1,6z"/>
<path id="XMLID_1_" class="st2" d="M11.9,6.3c0.6-0.4,1.6-0.4,2.3,0c0.6,0.4,0.6,0.9,0,1.3c-0.6,0.4-1.6,0.4-2.3,0
	C11.3,7.2,11.3,6.6,11.9,6.3z"/>
</svg>
