<!-- Generator: Adobe Illustrator 23.0.3, SVG Export Plug-In  -->
<svg version="1.1" xmlns="http://www.w3.org/2000/svg" xmlns:xlink="http://www.w3.org/1999/xlink" x="0px" y="0px" width="96.9px"
	 height="55.6px" viewBox="0 0 96.9 55.6" style="enable-background:new 0 0 96.9 55.6;" xml:space="preserve">
<style type="text/css">
	.st0{fill:url(#SVGID_1_);}
	.st1{fill:url(#SVGID_2_);}
	.st2{fill:url(#SVGID_3_);}
	.st3{fill:url(#SVGID_4_);}
</style>
<defs>
</defs>
<g>
	<linearGradient id="SVGID_1_" gradientUnits="userSpaceOnUse" x1="178.514" y1="223.0689" x2="4.397" y2="-20.0446">
		<stop  offset="3.802050e-03" style="stop-color:#A5CBEF"/>
		<stop  offset="0.4419" style="stop-color:#CEE3F6"/>
		<stop  offset="1" style="stop-color:#FFFFFF"/>
	</linearGradient>
	<path class="st0" d="M64.6,6.5L11.4,37.8L0,31.3L53.1,0L64.6,6.5z"/>
	<linearGradient id="SVGID_2_" gradientUnits="userSpaceOnUse" x1="190.587" y1="214.4223" x2="16.47" y2="-28.6913">
		<stop  offset="3.802050e-03" style="stop-color:#A5CBEF"/>
		<stop  offset="0.4419" style="stop-color:#CEE3F6"/>
		<stop  offset="1" style="stop-color:#FFFFFF"/>
	</linearGradient>
	<path class="st1" d="M81.8,27.4c0.6-0.9,0.3-1.7-0.8-2.3c-0.9-0.5-1.8-0.7-2.9-0.7c-1.1,0-2.4,0.4-4.1,1.1c-1.7,0.7-3.7,1.7-6.1,3
		c-2.4,1.3-5.4,3.1-9,5.2c-3.6,2.1-6.5,3.9-8.8,5.3c-2.3,1.4-4,2.6-5.1,3.6c-1.1,1-1.7,1.8-1.7,2.4c0,0.6,0.4,1.2,1.2,1.7
		c0.7,0.4,1.5,0.6,2.4,0.6c0.9,0,1.9-0.2,3.2-0.7c1.2-0.4,2.7-1.1,4.5-2.1c1.8-0.9,3.9-2.1,6.4-3.6l11.1,6.3l-3.9,2.3
		c-3.7,2.2-7.2,3.8-10.4,4.7c-3.2,0.9-6.2,1.4-8.9,1.5c-2.7,0-5.2-0.3-7.4-1c-2.2-0.7-4.2-1.6-6.1-2.6c-3.2-1.8-5.4-3.6-6.5-5.3
		c-1.1-1.7-1.1-3.6-0.1-5.5c1.1-2,3.1-4.1,6.2-6.4c3.1-2.3,7.1-4.9,12-7.8c5.1-3,9.6-5.4,13.6-7.2c4-1.8,7.8-3,11.2-3.6
		c3.4-0.6,6.6-0.6,9.6,0c3,0.6,5.9,1.7,8.9,3.4c2.6,1.5,4.4,2.9,5.4,4.4c1,1.5,1.3,3,1,4.5c-0.3,1.5-1.3,3-2.8,4.5
		c-1.5,1.5-3.6,3-6.2,4.5l-3.3,2l-11.1-6.3l3-1.8C79.3,29.7,81.2,28.3,81.8,27.4z"/>
</g>
</svg>
