<!-- Generator: Adobe Illustrator 23.0.3, SVG Export Plug-In  -->
<svg version="1.1" xmlns="http://www.w3.org/2000/svg" xmlns:xlink="http://www.w3.org/1999/xlink" x="0px" y="0px" width="176.8px"
	 height="113.6px" viewBox="0 0 176.8 113.6" style="enable-background:new 0 0 176.8 113.6;" xml:space="preserve">
<style type="text/css">
	.st0{fill:url(#SVGID_1_);}
	.st1{fill:url(#SVGID_2_);}
	.st2{fill:url(#SVGID_3_);}
	.st3{fill:#123A5F;}
	.st4{fill:url(#SVGID_4_);}
	.st5{fill:#CFCFCF;}
	.st6{fill:url(#SVGID_5_);}
	.st7{fill:url(#SVGID_6_);}
	.st8{fill:url(#SVGID_7_);}
	.st9{fill:url(#SVGID_8_);}
	.st10{fill:url(#SVGID_9_);}
	.st11{fill:url(#SVGID_10_);}
	.st12{fill:url(#SVGID_11_);}
</style>
<defs>
	<symbol  id="footer" viewBox="-7.1 -7.8 14.3 15.6">
		<linearGradient id="SVGID_1_" gradientUnits="userSpaceOnUse" x1="-6.2836" y1="4.353" x2="6.1539" y2="-3.7095">
			<stop  offset="0" style="stop-color:#3C5185"/>
			<stop  offset="1" style="stop-color:#7EA7DF"/>
		</linearGradient>
		<polygon class="st0" points="6.3,2.9 6.3,2.9 6.3,2.9 -2.2,7.8 -7.1,4.9 -7.1,3 0.6,-1.4 0.6,-6.8 2.2,-7.8 7.1,-4.9 7.1,2.4 		
			"/>
		<g>
			<linearGradient id="SVGID_2_" gradientUnits="userSpaceOnUse" x1="27.0387" y1="-20.6078" x2="6.5387" y2="-2.2328">
				<stop  offset="0" style="stop-color:#3C5185"/>
				<stop  offset="1" style="stop-color:#7EA7DF"/>
			</linearGradient>
			<polygon class="st1" points="-7.1,4.9 -2.2,7.8 7.1,2.4 2.2,-0.5 			"/>
			<linearGradient id="SVGID_3_" gradientUnits="userSpaceOnUse" x1="2.6414" y1="2.7838" x2="13.1414" y2="-25.7162">
				<stop  offset="0" style="stop-color:#3C5185"/>
				<stop  offset="1" style="stop-color:#7EA7DF"/>
			</linearGradient>
			<polygon class="st2" points="2.2,-7.8 7.1,-4.9 7.1,2.4 2.2,-0.5 			"/>
		</g>
	</symbol>
	<symbol  id="footer2" viewBox="-7.2 -5.6 14.4 11.2">
		<polygon class="st3" points="-5.6,-5.6 -0.5,-2.6 -0.5,3.8 -5.6,0.8 		"/>
		<linearGradient id="SVGID_4_" gradientUnits="userSpaceOnUse" x1="18.3004" y1="4.4522" x2="-34.3662" y2="-7.0478">
			<stop  offset="0" style="stop-color:#3C5185"/>
			<stop  offset="1" style="stop-color:#7EA7DF"/>
		</linearGradient>
		<polygon class="st4" points="-2.1,4.7 -2.1,5.6 -7.2,2.6 -7.2,1.7 -7.2,-4.7 -5.6,-5.6 -5.6,-0.2 2.1,-4.7 0.6,3.4 		"/>
		<polygon class="st5" points="0.6,3.4 2.1,-3.7 7.2,-0.7 7.2,0.2 		"/>
		<linearGradient id="SVGID_5_" gradientUnits="userSpaceOnUse" x1="4.1554" y1="13.3477" x2="2.1554" y2="7.5977">
			<stop  offset="0" style="stop-color:#3C5185"/>
			<stop  offset="1" style="stop-color:#7EA7DF"/>
		</linearGradient>
		<polygon class="st6" points="-7.2,2.6 -2.1,5.6 7.2,0.2 2.1,-2.8 		"/>
	</symbol>
</defs>
<g>
	<g>
		
			<use xlink:href="#footer2"  width="14.4" height="11.2" x="-7.2" y="-5.6" transform="matrix(1.0837 0 0 -1.0837 12.5012 43.4889)" style="overflow:visible;"/>
		
			<use xlink:href="#footer2"  width="14.4" height="11.2" x="-7.2" y="-5.6" transform="matrix(1.0837 0 0 -1.0837 27.6055 34.5144)" style="overflow:visible;"/>
		
			<use xlink:href="#footer2"  width="14.4" height="11.2" x="-7.2" y="-5.6" transform="matrix(1.0837 0 0 -1.0837 42.7098 25.5399)" style="overflow:visible;"/>
		
			<use xlink:href="#footer2"  width="14.4" height="11.2" x="-7.2" y="-5.6" transform="matrix(1.0837 0 0 -1.0837 57.8141 16.5654)" style="overflow:visible;"/>
		
			<use xlink:href="#footer2"  width="14.4" height="11.2" x="-7.2" y="-5.6" transform="matrix(1.0837 0 0 -1.0837 72.9184 7.5908)" style="overflow:visible;"/>
	</g>
	<g>
		
			<use xlink:href="#footer2"  width="14.4" height="11.2" x="-7.2" y="-5.6" transform="matrix(-1.0837 0 0 -1.0837 163.6796 42.2697)" style="overflow:visible;"/>
		
			<use xlink:href="#footer2"  width="14.4" height="11.2" x="-7.2" y="-5.6" transform="matrix(-1.0837 0 0 -1.0837 148.406 33.3291)" style="overflow:visible;"/>
		
			<use xlink:href="#footer2"  width="14.4" height="11.2" x="-7.2" y="-5.6" transform="matrix(-1.0837 0 0 -1.0837 133.1323 24.3884)" style="overflow:visible;"/>
		
			<use xlink:href="#footer2"  width="14.4" height="11.2" x="-7.2" y="-5.6" transform="matrix(-1.0837 0 0 -1.0837 117.8587 15.4478)" style="overflow:visible;"/>
		
			<use xlink:href="#footer2"  width="14.4" height="11.2" x="-7.2" y="-5.6" transform="matrix(-1.0837 0 0 -1.0837 102.5851 6.5071)" style="overflow:visible;"/>
	</g>
	<g>
		<linearGradient id="SVGID_6_" gradientUnits="userSpaceOnUse" x1="125.46" y1="47.1245" x2="429.7104" y2="-12.7723">
			<stop  offset="0.1499" style="stop-color:#FF9800"/>
			<stop  offset="1" style="stop-color:#FFC107"/>
		</linearGradient>
		<polygon class="st7" points="88.9,1.2 88.9,107.4 174.2,56.9 174.2,50.7 		"/>
		<linearGradient id="SVGID_7_" gradientUnits="userSpaceOnUse" x1="37.2449" y1="91.8651" x2="41.058" y2="85.6689">
			<stop  offset="0.1499" style="stop-color:#FF9800"/>
			<stop  offset="1" style="stop-color:#FFC107"/>
		</linearGradient>
		<polygon class="st8" points="86.8,0 1.5,50.5 1.5,56.7 88.9,107.4 88.9,1.2 		"/>
		<linearGradient id="SVGID_8_" gradientUnits="userSpaceOnUse" x1="1.4515" y1="50.6171" x2="174.2446" y2="50.6171">
			<stop  offset="0.1499" style="stop-color:#FF9800"/>
			<stop  offset="1" style="stop-color:#FFC107"/>
		</linearGradient>
		<polygon class="st9" points="1.5,50.5 86.8,0 174.2,50.7 88.9,101.2 		"/>
	</g>
	<g>
		
			<use xlink:href="#footer"  width="14.3" height="15.6" x="-7.1" y="-7.8" transform="matrix(1.0837 0 0 -1.0837 103.097 105.1348)" style="overflow:visible;"/>
		
			<use xlink:href="#footer"  width="14.3" height="15.6" x="-7.1" y="-7.8" transform="matrix(1.0837 0 0 -1.0837 119.6011 95.4265)" style="overflow:visible;"/>
		
			<use xlink:href="#footer"  width="14.3" height="15.6" x="-7.1" y="-7.8" transform="matrix(1.0837 0 0 -1.0837 136.1051 85.7182)" style="overflow:visible;"/>
		
			<use xlink:href="#footer"  width="14.3" height="15.6" x="-7.1" y="-7.8" transform="matrix(1.0837 0 0 -1.0837 152.6092 76.0099)" style="overflow:visible;"/>
		
			<use xlink:href="#footer"  width="14.3" height="15.6" x="-7.1" y="-7.8" transform="matrix(1.0837 0 0 -1.0837 169.1133 66.3016)" style="overflow:visible;"/>
	</g>
	<g>
		
			<use xlink:href="#footer"  width="14.3" height="15.6" x="-7.1" y="-7.8" transform="matrix(-1.0837 0 0 -1.0837 73.656 104.7735)" style="overflow:visible;"/>
		
			<use xlink:href="#footer"  width="14.3" height="15.6" x="-7.1" y="-7.8" transform="matrix(-1.0837 0 0 -1.0837 57.1745 95.1556)" style="overflow:visible;"/>
		
			<use xlink:href="#footer"  width="14.3" height="15.6" x="-7.1" y="-7.8" transform="matrix(-1.0837 0 0 -1.0837 40.693 85.5376)" style="overflow:visible;"/>
		
			<use xlink:href="#footer"  width="14.3" height="15.6" x="-7.1" y="-7.8" transform="matrix(-1.0837 0 0 -1.0837 24.2115 75.9196)" style="overflow:visible;"/>
		
			<use xlink:href="#footer"  width="14.3" height="15.6" x="-7.1" y="-7.8" transform="matrix(-1.0837 0 0 -1.0837 7.73 66.3016)" style="overflow:visible;"/>
	</g>
</g>
</svg>
