<!-- Generator: Adobe Illustrator 23.0.3, SVG Export Plug-In  -->
<svg version="1.1" xmlns="http://www.w3.org/2000/svg" xmlns:xlink="http://www.w3.org/1999/xlink" x="0px" y="0px" width="107.2px"
	 height="78.6px" viewBox="0 0 107.2 78.6" style="enable-background:new 0 0 107.2 78.6;" xml:space="preserve">
<style type="text/css">
	.st0{fill:url(#SVGID_1_);}
	.st1{fill:url(#SVGID_2_);}
	.st2{fill:url(#SVGID_3_);}
	.st3{fill:url(#SVGID_4_);}
</style>
<defs>
</defs>
<g>
	<linearGradient id="SVGID_1_" gradientUnits="userSpaceOnUse" x1="11.784" y1="41.1947" x2="93.1327" y2="49.0672">
		<stop  offset="3.802050e-03" style="stop-color:#A5CBEF"/>
		<stop  offset="0.4419" style="stop-color:#CEE3F6"/>
		<stop  offset="1" style="stop-color:#FFFFFF"/>
	</linearGradient>
	<path class="st0" d="M107.2,68V51.3l-44.4-21l-29.3-20C28,12,22.9,14.1,18.3,16.7c-4.7,2.7-8.4,5.7-11.3,8.9H0v16.6h0
		C-0.1,51.6,6,60.9,18.3,68C42.8,82.1,82.7,82.1,107.2,68L107.2,68z"/>
	<linearGradient id="SVGID_2_" gradientUnits="userSpaceOnUse" x1="87.9299" y1="20.8154" x2="10.2985" y2="40.0232">
		<stop  offset="3.802050e-03" style="stop-color:#A5CBEF"/>
		<stop  offset="0.4419" style="stop-color:#CEE3F6"/>
		<stop  offset="1" style="stop-color:#FFFFFF"/>
	</linearGradient>
	<path class="st1" d="M62.7,30.3L18.3,0l0,0c-24.4,14.1-24.4,37.2,0,51.3c24.4,14.1,64.4,14.1,88.8,0L62.7,30.3z"/>
</g>
</svg>
