<!-- Generator: Adobe Illustrator 23.0.1, SVG Export Plug-In  -->
<svg version="1.1" xmlns="http://www.w3.org/2000/svg" xmlns:xlink="http://www.w3.org/1999/xlink" x="0px" y="0px" width="84.3px"
	 height="15.4px" viewBox="0 0 84.3 15.4" style="enable-background:new 0 0 84.3 15.4;" xml:space="preserve">
<style type="text/css">
	.st0{fill:#FFFFFF;}
</style>
<defs>
</defs>
<g>
	<path class="st0" d="M2,1.3l0.1,6.4c0,2.2,0.9,3.1,2.3,3.1c1.5,0,2.3-1,2.3-3.2L6.6,1.3l2,0l0.1,6.3c0.1,3.4-1.7,4.9-4.3,5
		c-2.5,0-4.2-1.4-4.3-4.8L0,1.4L2,1.3z"/>
	<path class="st0" d="M10.9,6.9c0-1-0.1-1.9-0.1-2.6l1.8,0l0.1,1.2l0,0C13.3,4.5,14.2,4,15.4,4c1.8,0,3.4,1.5,3.4,4
		c0,2.9-1.7,4.3-3.6,4.3c-1,0-1.8-0.4-2.3-1l0,0l0.1,4.1l-2,0L10.9,6.9z M12.9,8.8c0,0.2,0,0.4,0.1,0.6c0.2,0.8,0.9,1.4,1.8,1.4
		c1.3,0,2-1.1,2-2.7c0-1.4-0.7-2.5-2-2.5c-0.8,0-1.6,0.6-1.8,1.5c0,0.2-0.1,0.3-0.1,0.5L12.9,8.8z"/>
	<path class="st0" d="M20.4,0.5l2,0L22.6,12l-2,0L20.4,0.5z"/>
	<path class="st0" d="M32.2,7.8c0,2.9-2,4.3-4,4.3c-2.3,0-4-1.5-4-4c0-2.6,1.6-4.2,4-4.3C30.6,3.8,32.2,5.4,32.2,7.8z M26.2,8
		c0,1.5,0.8,2.7,2,2.7c1.1,0,1.9-1.2,1.9-2.8c0-1.2-0.6-2.7-2-2.6C26.8,5.3,26.2,6.7,26.2,8z"/>
	<path class="st0" d="M38.4,11.8l-0.1-0.9l0,0c-0.5,0.6-1.3,1.1-2.3,1.1c-1.6,0-2.5-1.1-2.5-2.3c0-2,1.7-3,4.7-3.1l0-0.1
		c0-0.5-0.2-1.4-1.6-1.4c-0.8,0-1.6,0.3-2.1,0.6l-0.4-1.3c0.6-0.4,1.6-0.7,2.9-0.7C39.2,3.6,40,5.2,40,7l0,2.9
		c0,0.7,0.1,1.4,0.1,1.9L38.4,11.8z M38.1,7.9c-1.4,0-2.8,0.3-2.8,1.5c0,0.8,0.5,1.1,1.2,1.1c0.8,0,1.4-0.5,1.6-1.1
		c0-0.1,0.1-0.3,0.1-0.4L38.1,7.9z"/>
	<path class="st0" d="M49.4,0l0.1,9.4c0,0.8,0.1,1.7,0.1,2.2l-1.8,0l-0.1-1.3l0,0c-0.5,0.9-1.4,1.5-2.6,1.5c-1.9,0-3.4-1.6-3.5-4
		c-0.1-2.7,1.6-4.3,3.5-4.3c1.1,0,1.9,0.4,2.3,1l0,0L47.4,0L49.4,0z M47.5,7c0-0.2,0-0.4-0.1-0.5c-0.2-0.8-0.8-1.4-1.8-1.4
		c-1.3,0-2,1.2-2,2.7c0,1.5,0.8,2.5,2,2.5c0.8,0,1.5-0.6,1.7-1.4c0-0.2,0.1-0.4,0.1-0.6L47.5,7z"/>
	<path class="st0" d="M53.7,1.4c0,0.6-0.4,1.1-1.1,1.1c-0.7,0-1.1-0.5-1.1-1.1c0-0.6,0.4-1.1,1.1-1.1C53.2,0.3,53.7,0.7,53.7,1.4z
		 M51.7,11.6l-0.1-8l2,0l0.1,8L51.7,11.6z"/>
	<path class="st0" d="M55.8,5.9c0-0.9,0-1.7-0.1-2.4l1.8,0l0.1,1.2l0,0c0.3-0.6,1.2-1.4,2.5-1.4c1.4,0,2.8,0.9,2.9,3.4l0.1,4.7l-2,0
		L61,6.9c0-1.1-0.5-2-1.5-2c-0.8,0-1.3,0.6-1.5,1.2c-0.1,0.2-0.1,0.4-0.1,0.7l0.1,4.7l-2,0L55.8,5.9z"/>
	<path class="st0" d="M72.4,3.3c0,0.5,0,1.2,0,2.3l0.1,4.5c0,1.7-0.3,2.9-1.1,3.6c-0.8,0.7-2,1-3.1,1c-1,0-2.1-0.2-2.8-0.6l0.4-1.5
		c0.5,0.3,1.4,0.6,2.3,0.6c1.3,0,2.3-0.7,2.2-2.4l0-0.7l0,0c-0.4,0.7-1.3,1.2-2.3,1.2c-2,0-3.4-1.6-3.4-3.8c0-2.6,1.6-4.2,3.5-4.3
		c1.2,0,1.9,0.6,2.3,1.2l0,0l0.1-1.1L72.4,3.3z M70.4,6.5c0-0.2,0-0.4-0.1-0.5c-0.2-0.7-0.8-1.3-1.7-1.3c-1.1,0-1.9,1-1.9,2.6
		c0,1.4,0.7,2.4,2,2.4c0.8,0,1.4-0.5,1.6-1.2c0-0.2,0.1-0.5,0.1-0.7L70.4,6.5z"/>
	<path class="st0" d="M74.1,10.1c0-0.8,0.5-1.3,1.2-1.3c0.7,0,1.2,0.5,1.3,1.3c0,0.7-0.5,1.3-1.2,1.3C74.6,11.4,74.1,10.8,74.1,10.1
		z"/>
	<path class="st0" d="M77.9,10c0-0.8,0.5-1.3,1.2-1.3c0.7,0,1.2,0.5,1.3,1.3c0,0.7-0.5,1.3-1.2,1.3C78.5,11.3,77.9,10.8,77.9,10z"/>
	<path class="st0" d="M81.8,10c0-0.8,0.5-1.3,1.2-1.3c0.7,0,1.2,0.5,1.3,1.3c0,0.7-0.5,1.3-1.2,1.3C82.3,11.3,81.8,10.7,81.8,10z"/>
</g>
</svg>
