<!-- Generator: Adobe Illustrator 23.0.1, SVG Export Plug-In  -->
<svg version="1.1" xmlns="http://www.w3.org/2000/svg" xmlns:xlink="http://www.w3.org/1999/xlink" x="0px" y="0px" width="180.3px"
	 height="325.3px" viewBox="0 0 180.3 325.3" style="enable-background:new 0 0 180.3 325.3;" xml:space="preserve">
<style type="text/css">
	.st0{fill:#3E3A39;}
	.st1{fill:#262222;}
	.st2{fill:#3872B8;}
	.st3{fill:#4984BF;}
	.st4{fill:#706E6E;}
	.st5{fill:#FFFFFF;}
	.st6{fill:#E0E0E0;}
</style>
<defs>
</defs>
<g>
	<g>
		<g>
			<g>
				<g>
					<path class="st0" d="M21.2,0.2C9.5,0.2,0,9.3,0,20.4l0.4,284.7c0,11.1,9.6,20.2,21.2,20.2l68.7-0.1L89.9,0.1L21.2,0.2z"/>
					<path class="st1" d="M179.9,20.2c0-11.1-9.6-20.2-21.2-20.2L89.9,0.1l0.4,325.1l68.8-0.1c11.7,0,21.2-9.1,21.2-20.2L179.9,20.2
						z"/>
				</g>
				<g>
					<path class="st2" d="M171.5,40.4c0-4.4-3.8-8.1-8.5-8.1l-73,0.1l0.3,242.5l73-0.1c4.7,0,8.5-3.7,8.5-8.1L171.5,40.4z"/>
					<path class="st3" d="M17,32.5c-4.7,0-8.5,3.7-8.4,8.1L8.8,267c0,4.4,3.8,8.1,8.5,8.1l73-0.1L90,32.4L17,32.5z"/>
				</g>
				<g>
					<path class="st4" d="M80.6,288.9c-1.6,0-3.1,0.3-4.6,0.9c-4.5,1.8-7.4,6-7.4,10.6c0,6.3,5.4,11.5,12,11.4l9.7,0l0-22.9
						L80.6,288.9z"/>
					<path class="st0" d="M108.6,292.2c-2.3-2.2-5.3-3.3-8.5-3.3l-9.7,0l0,22.9l9.7,0c1.6,0,3.1-0.3,4.6-0.9l0,0
						c4.5-1.8,7.4-5.9,7.4-10.6C112.1,297.2,110.9,294.4,108.6,292.2z"/>
				</g>
				<g>
					<path class="st4" d="M69.9,13.7c-2.6,0-4.7,2-4.7,4.5c0,2.5,2.1,4.5,4.7,4.5l20,0l0-9L69.9,13.7z"/>
					<path class="st0" d="M110,13.7l-20,0l0,9l20,0c2.6,0,4.7-2,4.7-4.5C114.7,15.7,112.6,13.7,110,13.7z"/>
				</g>
			</g>
			<g>
				<path class="st5" d="M90.4,57.7c-40.9-0.2-74.2,32.9-74.4,73.8c-0.2,40.9,32.9,74.2,73.8,74.4L90.4,57.7L90.4,57.7z"/>
				<path class="st6" d="M90.4,57.7l-0.5,148.2l0,0c40.9,0.2,74.2-32.9,74.4-73.8C164.4,91.2,131.4,57.9,90.4,57.7z"/>
			</g>
		</g>
	</g>
</g>
</svg>
