<!-- Generator: Adobe Illustrator 23.0.1, SVG Export Plug-In  -->
<svg version="1.1" xmlns="http://www.w3.org/2000/svg" xmlns:xlink="http://www.w3.org/1999/xlink" x="0px" y="0px" width="169.7px"
	 height="220.2px" viewBox="0 0 169.7 220.2" style="enable-background:new 0 0 169.7 220.2;" xml:space="preserve">
<style type="text/css">
	.st0{clip-path:url(#SVGID_2_);}
	.st1{fill:#F6C6A4;}
	.st2{fill:#ECAF86;}
	.st3{fill:#F4DDCE;}
	.st4{clip-path:url(#SVGID_4_);}
</style>
<defs>
</defs>
<g>
	<defs>
		<rect id="SVGID_1_" width="169.7" height="185.2"/>
	</defs>
	<clipPath id="SVGID_2_">
		<use xlink:href="#SVGID_1_"  style="overflow:visible;"/>
	</clipPath>
	<g class="st0">
		<path class="st1" d="M134.5,68.9c0,8.1,0,17.3,0,17.3s-1.2-10-2.1-18.2c-4.1-6.4-14.5-8.2-19.3-2.3c0.1,9,0.2,20.1,0.2,20.1
			s0,0,0-0.1c-0.1-1.2-1.7-14.1-2.5-22.3c-3.5-6-12.6-8.3-17.9-4.2c0,2.3,0,5-0.1,7.8c-0.1,6.9-0.3,14.1-0.4,16.2c0,0,0,0.1,0,0.1
			c0,0.1,0,0.2,0,0.3c0,0.1,0,0.1,0,0.1c0,0,0,0,0,0S91.2,67.8,91,61.1l-0.8-43.6c0-13.3-22.6-15.5-22,0.7l1.4,60l0,0l0,0
			c-4.8-5.3-10.8-5.7-15.7-5.1c0,0,0,0,0,0c-0.1,0-0.2,0-0.3,0c0,0,0,0-0.1,0c-0.1,0-0.2,0-0.3,0c0,0,0,0-0.1,0
			c0,0,4.1,10.3,3.2,12.2c-0.5,1-1.9,1.9-3.1,2.5l7.4,31.7c1.1,4.5,7.8,21.1,13.8,28.2c2,4,4.9,8,8.5,11.4l0.3,13.3l-1.4,27.1
			l63.2,20.6l-1.2-51.4l0.8-14.9c6.6-8.5,9.7-19.4,9.5-30.4l-0.8-46.1C153.1,68,140.6,63.4,134.5,68.9z"/>
	</g>
	<g class="st0">
		<path class="st2" d="M112.1,67.2c0.1-0.1,0.2-0.3,0.2-0.4C112.3,66.9,112.2,67.1,112.1,67.2z"/>
		<path class="st2" d="M112,66.7c0,0.2,0.1,0.3,0.1,0.5C112.1,67,112.1,66.9,112,66.7z"/>
		<path class="st2" d="M112.6,66.4c0.2-0.3,0.3-0.5,0.5-0.7C113,65.9,112.8,66.1,112.6,66.4z"/>
		<path class="st2" d="M132.4,67.9c0.2,0.3,0.4,0.7,0.6,1C132.8,68.6,132.6,68.3,132.4,67.9z"/>
		<path class="st2" d="M133,69c0.1,0.1,0.1,0.3,0.2,0.5C133.2,69.3,133.1,69.1,133,69z"/>
		<path class="st2" d="M91.2,60.8c0.3-0.3,0.5-0.6,0.8-0.9C91.7,60.2,91.4,60.5,91.2,60.8z"/>
		<path class="st2" d="M111.5,64.7c0.1,0.1,0.1,0.3,0.2,0.4C111.6,65,111.5,64.9,111.5,64.7z"/>
		<path class="st2" d="M111.9,66.2c0,0.1,0.1,0.2,0.1,0.3C112,66.5,112,66.3,111.9,66.2z"/>
		<path class="st2" d="M111.8,65.7c0,0.1,0.1,0.2,0.1,0.3C111.9,66,111.8,65.9,111.8,65.7z"/>
		<path class="st2" d="M111.7,65.3c0,0.1,0.1,0.2,0.1,0.4C111.7,65.5,111.7,65.4,111.7,65.3z"/>
		<path class="st2" d="M112.4,66.8c0.1-0.1,0.2-0.2,0.2-0.4C112.5,66.5,112.5,66.6,112.4,66.8z"/>
		<path class="st2" d="M134.5,68.9c-0.2,0.2-0.4,0.3-0.5,0.5C134.2,69.3,134.3,69.1,134.5,68.9z"/>
		<path class="st2" d="M91.2,60.8c-0.1,0.1-0.1,0.1-0.2,0.2C91,61.2,91.1,61.1,91.2,60.8z"/>
		<path class="st2" d="M133.7,69.8c0.1-0.1,0.2-0.2,0.3-0.3C133.9,69.6,133.8,69.7,133.7,69.8z"/>
		<path class="st2" d="M133.3,69.6c0.1,0.2,0.1,0.3,0.2,0.5C133.4,69.9,133.3,69.7,133.3,69.6z"/>
		<path class="st2" d="M133.2,69.5c0,0,0,0.1,0,0.1C133.3,69.5,133.2,69.5,133.2,69.5z"/>
		<path class="st2" d="M111.8,65.6c0,0,0,0.1,0,0.1C111.8,65.7,111.8,65.7,111.8,65.6z"/>
		<path class="st2" d="M111.6,65.2C111.6,65.2,111.6,65.2,111.6,65.2C111.6,65.2,111.6,65.2,111.6,65.2z"/>
		<path class="st2" d="M111.9,66.1c0,0.1,0,0.1,0,0.2C111.9,66.2,111.9,66.1,111.9,66.1z"/>
		<path class="st2" d="M112,66.6c0,0,0,0.1,0,0.1C112,66.7,112,66.6,112,66.6z"/>
		<polygon class="st2" points="91.2,60.8 91.2,60.8 91.2,60.8 		"/>
		<path class="st2" d="M111.5,64.7C111.5,64.7,111.5,64.7,111.5,64.7C111.5,64.7,111.5,64.7,111.5,64.7z"/>
		<path class="st2" d="M92,59.9C92,59.9,92,59.9,92,59.9C92,59.9,92,59.9,92,59.9z"/>
		<path class="st2" d="M112.4,66.8C112.4,66.8,112.4,66.8,112.4,66.8C112.4,66.8,112.4,66.8,112.4,66.8z"/>
		<polygon class="st2" points="132.4,67.9 132.4,67.9 132.4,67.9 		"/>
		<path class="st2" d="M134,69.5C134,69.5,134,69.5,134,69.5C134,69.5,134,69.5,134,69.5z"/>
		<path class="st2" d="M133.5,70.1c0.1-0.1,0.2-0.2,0.2-0.3C133.6,69.9,133.6,70,133.5,70.1z"/>
		<polygon class="st2" points="113.1,65.7 113.1,65.7 113.1,65.7 		"/>
		<path class="st2" d="M112.6,66.4C112.6,66.4,112.6,66.4,112.6,66.4C112.6,66.4,112.6,66.4,112.6,66.4z"/>
		<path class="st2" d="M133,69C133,69,133,69,133,69C133,69,133,69,133,69z"/>
		<polygon class="st2" points="134.5,68.9 134.5,68.9 134.5,68.9 		"/>
		<g>
			<polygon class="st2" points="92.9,59.1 92.9,59.1 92.9,59.1 			"/>
			<path class="st2" d="M92.9,59.1C92.9,59.1,92.9,59.1,92.9,59.1C92.9,59.1,92.9,59.1,92.9,59.1C92.9,59.1,92.9,59.1,92.9,59.1z"/>
			<path class="st2" d="M111,63.7c0.2,0.3,0.3,0.7,0.5,1C111.3,64.4,111.2,64,111,63.7z"/>
			<polygon class="st2" points="110.8,63.4 110.8,63.4 110.8,63.4 			"/>
			<path class="st2" d="M110.8,63.4c0.8,8.2,2.3,21.1,2.5,22.3c0,0.1,0,0.1,0,0.1s-0.1-11.1-0.2-20.1c0,0,0,0,0,0
				c-0.2,0.2-0.4,0.5-0.5,0.7c0,0,0,0,0,0c-0.1,0.1-0.2,0.2-0.2,0.4c0,0,0,0,0,0c-0.1,0.1-0.2,0.3-0.2,0.4c0-0.2-0.1-0.3-0.1-0.5
				c0,0,0-0.1,0-0.1c0-0.1,0-0.2-0.1-0.3c0-0.1,0-0.1,0-0.2c0-0.1-0.1-0.2-0.1-0.3c0,0,0-0.1,0-0.1c0-0.1-0.1-0.2-0.1-0.4
				c0,0,0-0.1,0-0.1c-0.1-0.1-0.1-0.3-0.2-0.4c0,0,0,0,0,0C111.3,64.2,111,63.8,110.8,63.4C110.8,63.4,110.8,63.4,110.8,63.4z"/>
			<path class="st2" d="M111,63.7c-0.1-0.1-0.1-0.2-0.2-0.3c0,0,0,0,0,0C110.9,63.5,110.9,63.6,111,63.7z"/>
			<path class="st2" d="M111.5,64.7c-0.1-0.4-0.3-0.7-0.5-1c-0.1-0.1-0.1-0.2-0.2-0.3C111,63.8,111.3,64.2,111.5,64.7z"/>
			<polygon class="st2" points="110.8,63.4 110.8,63.4 110.8,63.4 			"/>
			<path class="st2" d="M92.4,83.7c0,0,0-0.1,0-0.1c0-0.1,0-0.2,0-0.3c0,0,0-0.1,0-0.1c0.1-2.1,0.2-9.3,0.4-16.2
				c0-2.8,0.1-5.5,0.1-7.8c0,0,0,0,0,0c-0.1,0.1-0.3,0.2-0.4,0.3c0,0-0.1,0-0.1,0.1c-0.1,0.1-0.3,0.2-0.4,0.4c0,0,0,0,0,0
				c-0.3,0.3-0.6,0.6-0.8,0.9c0,0,0,0,0,0c-0.1,0.2-0.2,0.3-0.2,0.2C91.2,67.8,92.4,83.8,92.4,83.7C92.4,83.8,92.4,83.7,92.4,83.7z"
				/>
			<path class="st2" d="M92.4,59.5C92.4,59.5,92.4,59.5,92.4,59.5C92.4,59.5,92.4,59.5,92.4,59.5z"/>
			<path class="st2" d="M92.9,59.1C92.9,59.1,92.9,59.1,92.9,59.1C92.9,59.1,92.9,59.1,92.9,59.1C92.9,59.1,92.9,59.1,92.9,59.1z"/>
			<path class="st2" d="M92.8,67c-0.1,6.9-0.3,14.1-0.4,16.2C92.5,81.1,92.7,73.9,92.8,67z"/>
			<path class="st2" d="M92.4,83.3c0,0.1,0,0.2,0,0.3C92.4,83.5,92.4,83.4,92.4,83.3z"/>
			<path class="st2" d="M134.5,68.9C134.5,68.9,134.5,68.9,134.5,68.9c-0.2,0.2-0.4,0.4-0.5,0.5c0,0,0,0,0,0
				c-0.1,0.1-0.2,0.2-0.3,0.3c-0.1,0.1-0.2,0.2-0.2,0.3c-0.1-0.2-0.1-0.3-0.2-0.5c0,0,0-0.1,0-0.1c-0.1-0.2-0.1-0.3-0.2-0.5
				c0,0,0,0,0,0c-0.2-0.4-0.4-0.7-0.6-1c0,0,0,0,0,0c0.9,8.2,2.1,18.2,2.1,18.2S134.5,77,134.5,68.9z"/>
			<path class="st2" d="M69.5,78.2c-1-1.1-2-2-3.1-2.7l3.9,36.9L69.5,78.2z"/>
		</g>
		<polygon class="st2" points="69.5,78.2 69.5,78.2 70.3,112.4 70.3,112.5 		"/>
	</g>
	<g class="st0">
		<path class="st3" d="M56.7,87.1c0.9-1.9-3.2-12.2-3.2-12.2c-0.6,0.1-1.1,0.2-1.5,0.3c-0.6,0.1-1.2,0.2-1.7,0.4l3.3,14.1
			C54.8,89,56.2,88.1,56.7,87.1z"/>
		<path class="st3" d="M69.9,14.8c0,0,2.4-5,9.3-5.1c6.9-0.1,8.8,4.6,8.8,4.6s3.4,12.9-8.6,13.2S69.9,14.8,69.9,14.8z"/>
	</g>
</g>
</svg>
