<!-- Generator: Adobe Illustrator 23.0.1, SVG Export Plug-In  -->
<svg version="1.1" xmlns="http://www.w3.org/2000/svg" xmlns:xlink="http://www.w3.org/1999/xlink" x="0px" y="0px" width="96.6px"
	 height="74.9px" viewBox="0 0 96.6 74.9" style="enable-background:new 0 0 96.6 74.9;" xml:space="preserve">
<style type="text/css">
	.st0{fill:#393C41;}
	.st1{fill:#2A2D30;}
	.st2{fill:#FF4140;}
	.st3{fill:#CC2221;}
	.st4{fill:#1E2D4F;}
	.st5{fill:#FFFBFF;}
	.st6{fill:#2D4375;}
</style>
<defs>
</defs>
<g>
	<g>
		<g>
			<path class="st0" d="M21.7,54.7L22,69c0,3.1-2.4,5.7-5.6,5.8l-4.8,0.1c-3.2,0.1-5.8-2.5-5.9-5.7L5.5,55c-0.1-3.2,2.5-5.8,5.7-5.9
				l4.7-0.1C19,49,21.7,51.5,21.7,54.7z"/>
			<g>
				
					<rect x="14.7" y="63" transform="matrix(0.9998 -1.941552e-02 1.941552e-02 0.9998 -1.3351 0.3069)" class="st1" width="0.9" height="11.9"/>
				
					<rect x="12.2" y="63" transform="matrix(0.9998 -1.944375e-02 1.944375e-02 0.9998 -1.3384 0.2586)" class="st1" width="0.9" height="11.9"/>
			</g>
			<g>
				<polygon class="st1" points="21.9,63.8 21.9,65.1 15.6,71.7 15.3,72 15.2,70.8 15.6,70.4 				"/>
				<polygon class="st1" points="22,67.7 22,69 16.4,74.8 15.3,74.8 15.3,74.7 15.7,74.3 				"/>
				<polygon class="st1" points="21.8,59.9 21.8,61.2 15.6,67.7 15.2,68.1 15.2,66.8 15.5,66.5 				"/>
			</g>
			<g>
				<polygon class="st1" points="5.7,64.1 5.7,65.4 12.2,71.7 12.6,72.1 12.6,70.8 12.2,70.4 				"/>
				<polygon class="st1" points="5.8,68 5.8,69.3 11.6,74.9 12.7,74.9 12.7,74.7 12.3,74.4 				"/>
				<polygon class="st1" points="5.6,60.2 5.6,61.5 12.2,67.8 12.5,68.2 12.5,66.9 12.1,66.5 				"/>
			</g>
		</g>
		<g>
			<path class="st0" d="M91.3,53.3l0.3,14.3c0,3.1-2.4,5.7-5.6,5.8l-4.8,0.1c-3.2,0.1-5.8-2.5-5.9-5.7l-0.3-14.3
				c-0.1-3.2,2.5-5.8,5.7-5.9l4.7-0.1C88.7,47.6,91.3,50.2,91.3,53.3z"/>
			<g>
				
					<rect x="84.3" y="61.6" transform="matrix(0.9998 -1.941552e-02 1.941552e-02 0.9998 -1.2957 1.6586)" class="st1" width="0.9" height="11.9"/>
				
					<rect x="81.8" y="61.7" transform="matrix(0.9998 -1.939893e-02 1.939893e-02 0.9998 -1.296 1.6085)" class="st1" width="0.9" height="11.9"/>
			</g>
			<g>
				<polygon class="st1" points="91.5,62.4 91.6,63.7 85.3,70.3 84.9,70.7 84.9,69.4 85.2,69 				"/>
				<polygon class="st1" points="91.6,66.4 91.6,67.7 86.1,73.5 85,73.5 85,73.3 85.3,72.9 				"/>
				<polygon class="st1" points="91.4,58.5 91.5,59.8 85.2,66.4 84.8,66.8 84.8,65.5 85.2,65.1 				"/>
			</g>
			<g>
				<polygon class="st1" points="75.3,62.8 75.3,64.1 81.9,70.4 82.3,70.7 82.2,69.5 81.8,69.1 				"/>
				<polygon class="st1" points="75.4,66.7 75.4,68 81.2,73.6 82.3,73.5 82.3,73.4 81.9,73 				"/>
				<polygon class="st1" points="75.2,58.8 75.3,60.1 81.8,66.5 82.2,66.8 82.2,65.5 81.8,65.2 				"/>
			</g>
		</g>
	</g>
	<path class="st1" d="M90.7,17.3l-6,0.1c-1.8,0-3.2,1.5-3.2,3.3c0,0.1,0,0.1,0,0.2l-4.4,3.5l0.8,1l4.1-3.2c0.6,1,1.6,1.8,2.9,1.7
		l6-0.1c1.8,0,3.2-1.5,3.2-3.3C94,18.7,92.5,17.3,90.7,17.3z"/>
	<path class="st1" d="M4.5,19l6-0.1c1.8,0,3.3,1.4,3.3,3.2c0,0.1,0,0.1,0,0.2l4.6,3.3l-0.7,1l-4.2-3c-0.5,1.1-1.6,1.8-2.9,1.8
		l-6,0.1c-1.8,0-3.3-1.4-3.3-3.2C1.2,20.5,2.7,19,4.5,19z"/>
	<g>
		<path class="st2" d="M95.8,60.8c0.1-0.5,0.1-0.9,0.2-1.6l0,0c0.6-6.2,0.7-12.5,0.3-18.8c-0.1-1.1-0.8-2.8-1.6-3.7
			c-2.7-3.1-5.4-6.1-8.2-9c-0.8-0.9-2.4-1.6-3.6-1.6c-11.8,0.2-23.7,0.4-35.5,0.7c-11.5,0.2-23,0.4-34.5,0.7c-1.1,0-2.7,0.8-3.5,1.7
			c-2.7,3.1-5.3,6.2-7.9,9.3c-0.8,0.9-1.4,2.6-1.5,3.8C0,43.5,0,44.1,0,45.4l0,0c0.1,5.8,0.5,11.5,1.3,17.3L95.8,60.8z"/>
	</g>
	<g>
		<path class="st3" d="M76.8,3.4c0,0,0-0.1,0-0.1c0-2.1-13.3-3.5-29.7-3.2C47,0,47,0,46.9,0l0.5,28l38.3-0.7L76.8,3.4z"/>
		<path class="st3" d="M17.6,4.4C17.6,4.4,17.6,4.5,17.6,4.4L9.9,28.7L47.4,28L46.9,0C30.6,0.4,17.5,2.3,17.6,4.4z"/>
	</g>
	<path class="st4" d="M75,4.1c-2.3-1.1-12.6-2.3-27.7-2c-0.1,0-0.3,0-0.4,0C32,2.4,21.9,4,19.7,5.2l-6.1,20.2l33.8-0.6l34.5-0.7
		L75,4.1z"/>
	<path class="st1" d="M65.5,53.8c0,1-0.8,1.8-1.8,1.8l-30.5,0.6c-1,0-1.8-0.8-1.8-1.8L31.2,46c0-1,0.8-1.8,1.8-1.8l30.5-0.6
		c1,0,1.8,0.8,1.8,1.8L65.5,53.8z"/>
	<g>
		<g>
			<path class="st3" d="M14.1,33.9C14.1,33.9,14.1,33.9,14.1,33.9l0.1,10.6l-0.9,0l0.1,4.6l11.3-0.2l-0.1-4.6
				C24.5,38.4,19.8,33.8,14.1,33.9z"/>
			<g>
				<path class="st3" d="M10.3,54.2c-3.5,0.1-6.5-2.7-6.5-6.3l0-0.2c-0.1-3.5,2.7-6.5,6.3-6.5l0.1,0l0.1,0c3.7,1,15.8,4.6,15.1,7.9
					C24.7,52.4,23,54,19.9,54L10.3,54.2z"/>
				<path class="st5" d="M24.7,49c-0.6,2.8-1.9,4.4-4.8,4.4l-9.6,0.2c-3.2,0.1-5.8-2.5-5.9-5.7l0-0.2c-0.1-3.2,2.5-5.8,5.7-5.9
					C10,41.8,25.3,46.1,24.7,49z"/>
			</g>
		</g>
		<g>
			<path class="st3" d="M82,32.6C82,32.6,82,32.6,82,32.6l0.3,10.6l0.9,0l0.1,4.6l-11.3,0.2l-0.1-4.6C71.7,37.5,76.2,32.7,82,32.6z"
				/>
			<g>
				<path class="st3" d="M86.6,52.8c3.5-0.1,6.3-3,6.3-6.5l0-0.2c-0.1-3.5-3-6.3-6.5-6.3l-0.1,0l-0.1,0c-3.7,1.2-15.6,5.2-14.8,8.4
					c0.8,3.3,2.6,4.8,5.6,4.7L86.6,52.8z"/>
				<path class="st5" d="M71.9,48.1c0.7,2.8,2.1,4.3,5,4.3l9.6-0.2c3.2-0.1,5.7-2.7,5.7-5.9l0-0.2c-0.1-3.2-2.7-5.7-5.9-5.7
					C86.3,40.4,71.3,45.2,71.9,48.1z"/>
			</g>
		</g>
	</g>
	<g>
		<polygon class="st4" points="15.3,19.8 13.6,25.4 47.3,24.7 81.9,24.1 76.6,8.7 		"/>
		<path class="st6" d="M75,4.1c-2.3-1.1-12.6-2.3-27.7-2c-0.1,0-0.3,0-0.4,0C32,2.4,21.9,4,19.7,5.2l-4.4,14.6L76.6,8.7L75,4.1z"/>
	</g>
	<path class="st1" d="M80.2,56.5l-1.5,2.3L18.4,60l-1.6-2.2L0.7,58c0.2,1.6,0.4,3.3,0.6,4.9c0.5,2.8,3.6,5.1,6.9,5
		c13.3-0.3,26.6-0.5,39.9-0.8L89,66.4c3.3-0.1,6.4-2.4,6.7-5.3c0.1-0.8,0.1-1.2,0.2-1.9l0,0c0.1-1,0.2-2.1,0.3-3.1L80.2,56.5z"/>
	<path class="st5" d="M63.8,64.1c0,0.8-0.7,1.5-1.5,1.6L35,66.2c-0.8,0-1.5-0.7-1.6-1.5l0-2.5c0-0.8,0.7-1.5,1.5-1.6l27.3-0.5
		c0.8,0,1.5,0.7,1.6,1.5L63.8,64.1z"/>
</g>
</svg>
