<?xml version="1.0" encoding="utf-8"?>
<!-- Generator: Adobe Illustrator 23.0.4, SVG Export Plug-In . SVG Version: 6.00 Build 0)  -->
<svg version="1.1" id="圖層_1" xmlns="http://www.w3.org/2000/svg" xmlns:xlink="http://www.w3.org/1999/xlink" x="0px" y="0px"
	 viewBox="0 0 75.9 107.1" style="enable-background:new 0 0 75.9 107.1;" xml:space="preserve">
<style type="text/css">
	.st0{fill:#6B727B;}
	.st1{fill:#005BAC;}
	.st2{fill:#2D74BB;}
	.st3{fill:#231815;}
	.st4{fill:#FF6200;}
	.st5{fill:#FFAA75;}
	.st6{fill:#FFFFFF;}
	.st7{fill:#FF863B;}
	.st8{fill:#FAF5E9;}
	.st9{fill:#FDF1D9;}
</style>
<g>
	<g id="XMLID_27_">
		<rect id="XMLID_28_" x="37" y="24.3" class="st0" width="1.5" height="67.2"/>
	</g>
	<g id="XMLID_25_">
		<polygon id="XMLID_26_" class="st0" points="3,70.9 1.6,70.6 37.7,20.1 73.8,70.6 72.4,70.9 37.7,23.4 		"/>
	</g>
	<polygon id="XMLID_24_" class="st1" points="4.9,41.4 4.8,43.1 33.2,34.2 32.1,29.7 	"/>
	<polygon id="XMLID_23_" class="st1" points="71.4,41.4 71.4,43.1 43.1,34.2 44.1,29.7 	"/>
	<polygon id="XMLID_22_" class="st1" points="72,11.5 73.5,11.5 75.5,0 70,0 	"/>
	<polygon id="XMLID_21_" class="st1" points="3.5,11.5 2,11.5 0,0 5.5,0 	"/>
	<polygon id="XMLID_20_" class="st1" points="2.5,4 2.5,5.8 23.9,22.9 27,19.8 	"/>
	<polygon id="XMLID_19_" class="st1" points="73.4,4 73.4,5.8 51.9,22.9 48.8,19.8 	"/>
	<path id="XMLID_18_" class="st1" d="M22.8,21.7v10.5h0.1c9.6,5.5,21.4,5.6,31,0.1l0,0v-10L22.8,21.7z"/>
	<ellipse id="XMLID_17_" class="st2" cx="38.3" cy="21.7" rx="15.6" ry="9"/>
	<polygon id="XMLID_16_" class="st2" points="43.8,29.6 70.9,41.4 73.4,40 45.7,22.1 	"/>
	<polygon id="XMLID_15_" class="st2" points="32.1,29.7 4.9,41.4 2.5,40 30.2,22.1 	"/>
	<polygon id="XMLID_14_" class="st2" points="45,13.7 70.9,2.6 73.4,4 45.7,21.8 	"/>
	<polygon id="XMLID_13_" class="st2" points="31.6,14.1 4.9,2.6 2.5,4 30.2,21.8 	"/>
	<polygon id="XMLID_12_" class="st1" points="73.9,51.4 72.4,51.4 70.4,39.9 75.9,39.9 	"/>
	<polygon id="XMLID_11_" class="st1" points="2,51.4 3.5,51.4 5.5,39.9 0,39.9 	"/>
	<path id="XMLID_10_" class="st3" d="M46.1,17.2c-4.3-2.5-11.3-2.5-15.6,0s-4.3,6.5,0,9s11.3,2.5,15.6,0
		C50.4,23.8,50.4,19.7,46.1,17.2z"/>
	<g id="XMLID_3_">
		<polygon id="XMLID_9_" class="st4" points="1.6,70.6 37.7,49.8 73.8,70.6 37.7,91.5 		"/>
		<polygon id="XMLID_8_" class="st5" points="1.6,70.6 1.6,86.2 37.7,107.1 37.7,91.5 		"/>
		<polygon id="XMLID_7_" class="st6" points="3.3,74.3 3.3,78.3 12.4,83.5 12.4,79.6 		"/>
		<polygon id="XMLID_6_" class="st7" points="37.7,107.1 73.8,86.2 73.8,70.6 37.7,91.5 		"/>
		<polygon id="XMLID_5_" class="st8" points="16.1,94.6 16.1,78.9 23.3,83.1 23.3,98.8 		"/>
		<polygon id="XMLID_4_" class="st9" points="16.1,78.9 52.2,58.2 59.7,62.2 23.3,83.1 		"/>
	</g>
	<g id="XMLID_1_">
		<polygon id="XMLID_2_" class="st0" points="38.5,91.1 37.7,91.5 37,91 37,36.4 38.5,36.4 		"/>
	</g>
</g>
</svg>
