<!-- Generator: Adobe Illustrator 23.0.3, SVG Export Plug-In  -->
<svg version="1.1" xmlns="http://www.w3.org/2000/svg" xmlns:xlink="http://www.w3.org/1999/xlink" x="0px" y="0px" width="48.5px"
	 height="69.4px" viewBox="0 0 48.5 69.4" style="enable-background:new 0 0 48.5 69.4;" xml:space="preserve">
<style type="text/css">
	.st0{fill:#29BAEE;}
	.st1{fill:#FFFFFF;}
</style>
<defs>
</defs>
<g id="XMLID_1_">
	<polygon id="XMLID_6_" class="st0" points="48.5,28 0,0 0,33.2 40.1,56.2 48.5,69.4 	"/>
	<g id="XMLID_2_">
		<path id="XMLID_5_" class="st1" d="M7.8,25.9L21.9,34c0.6,0.4,1,1,1,1.8c0,0.5-0.5,0.8-0.9,0.5L7.9,28.1c-0.6-0.4-1-1-1-1.8
			C6.9,25.9,7.4,25.6,7.8,25.9z"/>
		<path id="XMLID_4_" class="st1" d="M7.8,19.9l23.7,13.7c0.6,0.4,1,1,1,1.8v0c0,0.5-0.5,0.8-0.9,0.5L7.9,22.1c-0.6-0.4-1-1-1-1.8
			l0,0C6.9,19.9,7.4,19.6,7.8,19.9z"/>
		<path id="XMLID_3_" class="st1" d="M6.4,14.1c0-0.5,0.5-0.8,0.9-0.5l26.9,15.5c0.6,0.4,1,1,1,1.8c0,0.5-0.5,0.8-0.9,0.5L7.5,15.9
			C6.8,15.5,6.4,14.9,6.4,14.1z"/>
	</g>
</g>
</svg>
