<!-- Generator: Adobe Illustrator 23.0.3, SVG Export Plug-In  -->
<svg version="1.1" xmlns="http://www.w3.org/2000/svg" xmlns:xlink="http://www.w3.org/1999/xlink" x="0px" y="0px" width="123.4px"
	 height="70.1px" viewBox="0 0 123.4 70.1" style="enable-background:new 0 0 123.4 70.1;" xml:space="preserve">
<style type="text/css">
	.st0{fill:#4C4948;}
	.st1{fill:#FFFFFF;}
	.st2{fill:#FFA166;}
	.st3{fill:#FF6200;}
	.st4{fill:#29BAEE;}
	.st5{fill:#89D0F4;}
</style>
<defs>
</defs>
<g>
	<g>
		<path id="XMLID_15_" class="st0" d="M30.6,63.4c0,3.7,3,6.7,6.7,6.7c3.7,0,6.7-3,6.7-6.7c0-3.7-3-6.7-6.7-6.7
			C33.6,56.7,30.6,59.7,30.6,63.4z"/>
		<path id="XMLID_14_" class="st1" d="M34.2,63.4c0,1.7,1.4,3.1,3.1,3.1c1.7,0,3.1-1.4,3.1-3.1c0-1.7-1.4-3.1-3.1-3.1
			C35.6,60.3,34.2,61.7,34.2,63.4z"/>
	</g>
	<path id="XMLID_13_" class="st2" d="M1.6,45.7c-1.8-1.6-2.3-4.5-0.5-6.6l11-13.5C25.4,9.4,45.2,0,66.1,0l0,0
		c10.1,0,19.4,4,26.3,10.8l16.8,16.8c4.1,3.9,7.4,8.8,9.4,14.4l4.3,11.8c1.9,5.1-1.9,10.5-7.4,10.5H22.2c-1.6,0-2.9-0.7-3.8-1.8
		L1.6,45.7z"/>
	<path id="XMLID_12_" class="st3" d="M22.2,64.3h93.3c5.5,0,9.3-5.4,7.4-10.5L118.6,42c-5.4-14.8-19.4-24.6-35.1-24.6h0
		c-20.9,0-40.7,9.4-53.9,25.6l-11,13.5C15.9,59.6,18.1,64.3,22.2,64.3z"/>
	<path id="XMLID_11_" class="st0" d="M89,32.4c0,1,1.7,1.7,3.9,1.7c2.2,0,3.9-0.8,3.9-1.7c0-1-1.7-1.7-3.9-1.7
		C90.7,30.7,89,31.5,89,32.4z"/>
	<g id="XMLID_9_">
		<path id="XMLID_10_" class="st4" d="M78.7,30.4c2.3-3.4,2.7-6.6-0.7-6.7c-8-0.2-29.1,2.3-50.6,29.4c0,0-3.9,6,2.9,6h21.3
			c2.4,0,4.6-1.6,5.3-3.9c2-6.4,4.6-12.5,15.5-18.9C72.4,36.4,76.3,33.9,78.7,30.4z"/>
	</g>
	<path id="XMLID_8_" class="st0" d="M12.6,47.5c-0.2,0-0.3-0.1-0.4-0.2l-2.8-2.8c-0.2-0.2-0.2-0.6,0-0.9c0.2-0.2,0.6-0.2,0.9,0
		l2.8,2.8c0.2,0.2,0.2,0.6,0,0.9C13,47.5,12.8,47.5,12.6,47.5z"/>
	<path id="XMLID_7_" class="st0" d="M11.2,50.4c-0.2,0-0.3-0.1-0.4-0.2L8,47.5c-0.2-0.2-0.2-0.6,0-0.9c0.2-0.2,0.6-0.2,0.9,0
		l2.8,2.8c0.2,0.2,0.2,0.6,0,0.9C11.6,50.4,11.4,50.4,11.2,50.4z"/>
	<g id="XMLID_3_">
		<path id="XMLID_6_" class="st5" d="M92.3,10.8l9.5,9.5c0,0-37.7-25-80,25.2c-0.8,0.9-2.1,1-3,0.2l-9.2-8.5
			c-0.7-0.7-0.9-1.8-0.4-2.6C24,11.9,60.7-10.8,92.3,10.8z"/>
		<g id="XMLID_4_">
			<polygon id="XMLID_5_" class="st0" points="64.7,2.1 64.7,2.1 64.7,2.1 			"/>
		</g>
	</g>
	<path id="XMLID_2_" class="st1" d="M14.7,54.5c-0.1,0-0.3,0-0.4-0.1c-0.6-0.2-0.9-0.9-0.7-1.5c1.1-2.9,2.7-4.3,2.8-4.4
		c0.5-0.4,1.2-0.3,1.6,0.1c0.4,0.5,0.3,1.2-0.1,1.6c0,0-1.3,1.2-2.1,3.4C15.6,54.2,15.2,54.5,14.7,54.5z"/>
	<path id="XMLID_1_" class="st1" d="M5,44.5c-0.1,0-0.3,0-0.4-0.1C4.1,44.2,3.8,43.6,4,43c1.1-2.9,2.7-4.3,2.8-4.4
		c0.5-0.4,1.2-0.3,1.6,0.1c0.4,0.5,0.3,1.2-0.1,1.6l0,0c0,0-1.3,1.1-2.1,3.4C6,44.2,5.5,44.5,5,44.5z"/>
</g>
</svg>
