<!-- Generator: Adobe Illustrator 23.0.3, SVG Export Plug-In  -->
<svg version="1.1" xmlns="http://www.w3.org/2000/svg" xmlns:xlink="http://www.w3.org/1999/xlink" x="0px" y="0px" width="82.2px"
	 height="114.8px" viewBox="0 0 82.2 114.8" style="enable-background:new 0 0 82.2 114.8;" xml:space="preserve">
<style type="text/css">
	.st0{fill:url(#SVGID_1_);}
	.st1{fill:url(#SVGID_2_);}
	.st2{fill:url(#SVGID_3_);}
	.st3{fill:url(#SVGID_4_);}
	.st4{fill:url(#SVGID_5_);}
	.st5{fill:url(#SVGID_6_);}
	.st6{fill:url(#SVGID_7_);}
	.st7{fill:url(#SVGID_8_);}
	.st8{fill:url(#SVGID_9_);}
	.st9{fill:url(#SVGID_10_);}
</style>
<defs>
</defs>
<g>
	<linearGradient id="SVGID_1_" gradientUnits="userSpaceOnUse" x1="87.8522" y1="105.665" x2="12.3941" y2="28.2811">
		<stop  offset="0" style="stop-color:#3C5185"/>
		<stop  offset="1" style="stop-color:#7EA7DF"/>
	</linearGradient>
	<path class="st0" d="M71.9,47.7c0.2-0.2,0.5-0.5,0.7-0.7c0.2-0.2,0.5-0.5,0.7-0.7c0.2-0.2,0.5-0.5,0.7-0.7c0.2-0.2,0.5-0.5,0.7-0.7
		c0.2-0.2,0.5-0.5,0.7-0.7c0.2-0.2,0.5-0.5,0.7-0.7c0.2-0.2,0.5-0.5,0.7-0.7c0.4-0.4,0.8-0.9,1.2-1.4c1-1.4,1.7-3.1,2.1-4.9
		c0.4-1.8,0.6-3.7,0.6-5.6c0-3.5-0.5-6.9-1.6-10c-1.1-3.2-2.8-6-5.2-8.6c-2.4-2.6-5.4-4.8-9.1-6.7c-3.7-1.9-8.2-3.4-13.6-4.4
		c-5.2-1-9.7-1.3-13.5-0.8c-3.7,0.5-6.8,1.5-9.2,3.2c-1,0.7-1.9,1.5-2.7,2.4c-0.2,0.2-0.5,0.5-0.7,0.7c-0.2,0.2-0.5,0.5-0.7,0.7
		c-0.2,0.2-0.5,0.5-0.7,0.7c-0.2,0.2-0.5,0.5-0.7,0.7c-0.2,0.2-0.5,0.5-0.7,0.7c-0.2,0.2-0.5,0.5-0.7,0.7c-0.2,0.2-0.5,0.5-0.7,0.7
		c-0.2,0.2-0.5,0.5-0.7,0.7c-0.2,0.2-0.5,0.5-0.7,0.7c-0.2,0.2-0.5,0.5-0.7,0.7c-0.2,0.2-0.5,0.5-0.7,0.7c-0.2,0.2-0.5,0.5-0.7,0.7
		c-0.2,0.2-0.5,0.5-0.7,0.7c-0.2,0.2-0.5,0.5-0.7,0.7c-0.2,0.2-0.5,0.5-0.7,0.7c-0.2,0.2-0.5,0.5-0.7,0.7c-0.2,0.2-0.5,0.5-0.7,0.7
		c-0.2,0.2-0.5,0.5-0.7,0.7c-0.2,0.2-0.5,0.5-0.7,0.7c-0.2,0.2-0.5,0.5-0.7,0.7c-0.2,0.2-0.5,0.5-0.7,0.7c-0.2,0.2-0.5,0.5-0.7,0.7
		c-0.2,0.2-0.5,0.5-0.7,0.7c-0.2,0.2-0.5,0.5-0.7,0.7c-0.2,0.2-0.5,0.5-0.7,0.7c-0.2,0.2-0.5,0.5-0.7,0.7c-0.2,0.2-0.5,0.5-0.7,0.7
		c-0.2,0.2-0.5,0.5-0.7,0.7c-0.2,0.2-0.5,0.5-0.7,0.7c-1.4,1.4-2.4,3-3.2,4.9c-1.1,2.7-1.6,5.9-1.6,9.4c0,1.9,0.2,3.9,0.6,5.9
		c0.4,2,1.1,3.9,2.1,5.7c1,1.8,2.4,3.5,4.2,5.1c0.6,0.5,1.2,1,1.9,1.5c-0.1,0.1-0.1,0.2-0.2,0.2c-0.2,0.2-0.4,0.5-0.7,0.7
		c-0.2,0.2-0.4,0.5-0.7,0.7c-0.2,0.2-0.4,0.5-0.7,0.7c-0.2,0.2-0.4,0.5-0.7,0.7c-0.2,0.2-0.4,0.5-0.7,0.7c-0.2,0.2-0.4,0.5-0.7,0.7
		c-0.2,0.2-0.4,0.5-0.7,0.7C5.4,64.5,5.2,64.8,5,65c-0.4,0.4-0.8,0.8-1.2,1.3C1.3,69.6,0,74,0,79.5C0,85,0.7,89.8,2.1,93.6
		c0.9,2.6,2.1,4.9,3.6,6.9l65.5-52.1C71.5,48.2,71.7,47.9,71.9,47.7z"/>
	<linearGradient id="SVGID_2_" gradientUnits="userSpaceOnUse" x1="39.796" y1="75.701" x2="69.097" y2="103.2369">
		<stop  offset="0" style="stop-color:#3C5185"/>
		<stop  offset="1" style="stop-color:#7EA7DF"/>
	</linearGradient>
	<path class="st1" d="M81.3,62.6c-0.6-2.4-1.4-4.6-2.6-6.6c-1.2-2-2.8-3.9-4.7-5.5c-0.8-0.7-1.8-1.4-2.8-2c0,0,0-0.1,0.1-0.1h0
		L5.8,100.5c0.8,1.1,1.6,2,2.5,2.9c2.7,2.7,5.9,4.7,9.7,6.2c3.8,1.5,8.2,2.7,13.1,3.7c4.9,0.9,9.3,1.4,13.2,1.4
		c3.9,0,7.1-0.8,9.7-2.5c1.2-0.7,2.2-1.6,3.1-2.7c0.2-0.2,0.5-0.5,0.7-0.7c0.2-0.2,0.4-0.5,0.7-0.7c0.2-0.2,0.5-0.5,0.7-0.7
		c0.2-0.2,0.4-0.5,0.7-0.7c0.2-0.2,0.5-0.5,0.7-0.7c0.2-0.2,0.4-0.5,0.7-0.7c0.2-0.2,0.4-0.5,0.7-0.7c0.2-0.2,0.4-0.5,0.7-0.7
		c0.2-0.2,0.4-0.5,0.7-0.7c0.2-0.2,0.4-0.5,0.7-0.7c0.2-0.2,0.4-0.5,0.7-0.7c0.2-0.2,0.5-0.5,0.7-0.7c0.2-0.2,0.4-0.5,0.7-0.7
		c0.2-0.2,0.5-0.5,0.7-0.7c0.2-0.2,0.4-0.5,0.7-0.7c0.2-0.2,0.4-0.5,0.7-0.7c0.2-0.2,0.4-0.5,0.7-0.7c0.2-0.2,0.4-0.5,0.7-0.7
		c0.2-0.2,0.4-0.5,0.7-0.7c0.2-0.2,0.4-0.5,0.7-0.7c0.2-0.2,0.4-0.5,0.7-0.7c0.2-0.2,0.5-0.5,0.7-0.7c0.2-0.2,0.4-0.5,0.7-0.7
		c0.2-0.2,0.4-0.5,0.7-0.7c0.2-0.2,0.4-0.5,0.7-0.7c0.2-0.2,0.4-0.5,0.7-0.7c0.2-0.2,0.4-0.5,0.7-0.7c0.2-0.2,0.4-0.5,0.7-0.7
		c0.2-0.2,0.4-0.5,0.7-0.7c1.5-1.5,2.7-3.3,3.6-5.5c1.4-3.3,2.1-7.8,2.1-13.4C82.2,67.4,81.9,65,81.3,62.6z"/>
	<linearGradient id="SVGID_3_" gradientUnits="userSpaceOnUse" x1="22.4025" y1="78.9358" x2="37.4269" y2="91.0046">
		<stop  offset="0" style="stop-color:#3C5185"/>
		<stop  offset="1" style="stop-color:#7EA7DF"/>
	</linearGradient>
	<path class="st2" d="M25.9,95.5c1.2,2,3,3.2,5.2,3.7c2.2,0.4,4-0.1,5.2-1.6c1.2-1.5,1.9-4.9,1.9-10.2c0-5.2-0.6-8.8-1.9-10.8
		c-1.2-2-3-3.2-5.2-3.7c-2.2-0.4-4,0.1-5.2,1.6c-1.2,1.5-1.9,4.9-1.9,10.1C24,89.8,24.6,93.4,25.9,95.5z"/>
	<linearGradient id="SVGID_4_" gradientUnits="userSpaceOnUse" x1="23.1299" y1="42.1919" x2="37.9121" y2="53.0321">
		<stop  offset="0" style="stop-color:#3C5185"/>
		<stop  offset="1" style="stop-color:#7EA7DF"/>
	</linearGradient>
	<path class="st3" d="M25.4,52.3c0.3,1.5,0.8,2.7,1.4,3.6c0.6,0.9,1.2,1.6,1.9,2c0.7,0.4,1.5,0.7,2.4,0.9c1.7,0.3,3.2-0.1,4.4-1.3
		c1.2-1.2,1.8-4,1.8-8.4c0-2.2-0.2-4-0.5-5.5c-0.3-1.5-0.8-2.6-1.4-3.5c-0.6-0.9-1.2-1.6-1.9-2c-0.7-0.4-1.5-0.7-2.4-0.9
		c-0.9-0.2-1.7-0.2-2.4,0c-0.7,0.2-1.4,0.6-1.9,1.3c-0.6,0.7-1,1.7-1.4,3c-0.3,1.3-0.5,3.1-0.5,5.3C24.9,49,25.1,50.8,25.4,52.3z"/>
	
		<linearGradient id="SVGID_5_" gradientUnits="userSpaceOnUse" x1="-47.2954" y1="561.176" x2="-47.2954" y2="508.0778" gradientTransform="matrix(0.9656 0.195 0 1 76.773 -435.6248)">
		<stop  offset="0.1499" style="stop-color:#FF9800"/>
		<stop  offset="1" style="stop-color:#FFC107"/>
	</linearGradient>
	<path class="st4" d="M18,109.7c-3.8-1.5-7.1-3.6-9.7-6.2c-2.7-2.7-4.7-5.9-6.1-9.8C0.7,89.8,0,85,0,79.5c0-5.5,1.3-9.9,3.8-13.2
		c2.5-3.3,6.3-4.8,11.4-4.5v-0.3c-2.7-1.1-4.9-2.4-6.6-4c-1.8-1.6-3.2-3.3-4.2-5.1c-1-1.8-1.7-3.7-2.1-5.7c-0.4-2-0.6-3.9-0.6-5.9
		c0-3.5,0.5-6.7,1.6-9.4c1.1-2.7,2.8-4.9,5.2-6.6c2.4-1.6,5.4-2.7,9.2-3.2c3.7-0.5,8.2-0.2,13.5,0.8c5.3,1,9.9,2.5,13.6,4.4
		c3.7,1.9,6.7,4.1,9.1,6.7c2.4,2.6,4.1,5.4,5.2,8.6c1.1,3.2,1.6,6.5,1.6,10c0,1.9-0.2,3.8-0.6,5.6c-0.4,1.8-1.1,3.4-2.1,4.9
		c-1,1.4-2.4,2.6-4.1,3.5c-1.7,0.9-4,1.4-6.7,1.4V68c2.8,1,5.1,2.4,7,4c1.9,1.6,3.5,3.5,4.7,5.5c1.2,2,2.1,4.3,2.6,6.6
		c0.6,2.4,0.8,4.8,0.8,7.4c0,5.6-0.7,10-2.1,13.4c-1.4,3.3-3.4,5.8-6.1,7.5c-2.6,1.6-5.9,2.5-9.7,2.5c-3.9,0-8.3-0.5-13.2-1.4
		C26.2,112.4,21.8,111.2,18,109.7z M25.9,95.5c1.2,2,3,3.2,5.2,3.7c2.2,0.4,4-0.1,5.2-1.6c1.2-1.5,1.9-4.9,1.9-10.2
		c0-5.2-0.6-8.8-1.9-10.8c-1.2-2-3-3.2-5.2-3.7c-2.2-0.4-4,0.1-5.2,1.6c-1.2,1.5-1.9,4.9-1.9,10.1C24,89.8,24.6,93.4,25.9,95.5z
		 M25.4,52.3c0.3,1.5,0.8,2.7,1.4,3.6c0.6,0.9,1.2,1.6,1.9,2c0.7,0.4,1.5,0.7,2.4,0.9c1.7,0.3,3.2-0.1,4.4-1.3
		c1.2-1.2,1.8-4,1.8-8.4c0-2.2-0.2-4-0.5-5.5c-0.3-1.5-0.8-2.6-1.4-3.5c-0.6-0.9-1.2-1.6-1.9-2c-0.7-0.4-1.5-0.7-2.4-0.9
		c-0.9-0.2-1.7-0.2-2.4,0c-0.7,0.2-1.4,0.6-1.9,1.3c-0.6,0.7-1,1.7-1.4,3c-0.3,1.3-0.5,3.1-0.5,5.3C24.9,49,25.1,50.8,25.4,52.3z"/>
</g>
</svg>
