<!-- Generator: Adobe Illustrator 23.0.3, SVG Export Plug-In  -->
<svg version="1.1" xmlns="http://www.w3.org/2000/svg" xmlns:xlink="http://www.w3.org/1999/xlink" x="0px" y="0px" width="61.3px"
	 height="114.3px" viewBox="0 0 61.3 114.3" style="enable-background:new 0 0 61.3 114.3;" xml:space="preserve">
<style type="text/css">
	.st0{fill:url(#SVGID_1_);}
	.st1{fill:url(#SVGID_2_);}
	.st2{fill:url(#SVGID_3_);}
	.st3{fill:url(#SVGID_4_);}
	.st4{fill:url(#SVGID_5_);}
	.st5{fill:url(#SVGID_6_);}
	.st6{fill:url(#SVGID_7_);}
	.st7{fill:url(#SVGID_8_);}
</style>
<defs>
</defs>
<linearGradient id="SVGID_1_" gradientUnits="userSpaceOnUse" x1="21.622" y1="43.8671" x2="78.5783" y2="84.7271">
	<stop  offset="0" style="stop-color:#3C5185"/>
	<stop  offset="1" style="stop-color:#7EA7DF"/>
</linearGradient>
<polygon class="st0" points="17.3,50.8 17.3,109.7 41.3,114.3 41.3,113.5 42,113.6 42,112.7 42.6,112.9 42.6,112 43.3,112.1 
	43.3,111.3 44,111.4 44,110.6 44.6,110.7 44.6,109.9 45.3,110 45.3,109.1 46,109.3 46,108.4 46.6,108.6 46.6,107.7 47.3,107.8 
	47.3,107 48,107.1 48,106.3 48.6,106.4 48.6,105.6 49.3,105.7 49.3,104.8 50,105 50,104.1 50.6,104.2 50.6,103.4 51.3,103.5 
	51.3,102.7 52,102.8 52,102 52.6,102.1 52.6,101.2 53.3,101.4 53.3,100.5 53.9,100.7 53.9,99.8 54.6,99.9 54.6,99.1 55.3,99.2 
	55.3,98.4 55.9,98.5 55.9,97.7 56.6,97.8 56.6,96.9 57.3,97.1 57.3,96.2 57.9,96.3 57.9,95.5 58.6,95.6 58.6,94.8 59.3,94.9 
	59.3,94.1 59.9,94.2 59.9,93.3 60.6,93.5 60.6,92.6 61.3,92.8 61.3,3.4 "/>
<linearGradient id="SVGID_2_" gradientUnits="userSpaceOnUse" x1="25.2981" y1="28.853" x2="13.7288" y2="18.0222">
	<stop  offset="0" style="stop-color:#3C5185"/>
	<stop  offset="1" style="stop-color:#7EA7DF"/>
</linearGradient>
<path class="st1" d="M24,21.5L41,3.2l-6.2,6.7c-1.6,0.4-3.1,0.5-5.3,0.5c-2.7-0.1-5.9-0.4-9.6-1.2L0,30.8v14.6l28.2-18.8L24,21.5z"
	/>
<linearGradient id="SVGID_3_" gradientUnits="userSpaceOnUse" x1="74.6381" y1="72.4986" x2="28.4752" y2="22.0304">
	<stop  offset="0" style="stop-color:#3C5185"/>
	<stop  offset="1" style="stop-color:#7EA7DF"/>
</linearGradient>
<polygon class="st2" points="44,0 41,3.2 24,21.5 28.2,26.7 0,45.4 0,45.4 17.3,48.8 17.3,50.8 61.3,3.4 61.3,3.3 "/>
<linearGradient id="SVGID_4_" gradientUnits="userSpaceOnUse" x1="-59.929" y1="571.8824" x2="-59.929" y2="518.666" gradientTransform="matrix(0.9656 0.195 0 1 78.519 -445.5322)">
	<stop  offset="0.1499" style="stop-color:#FF9800"/>
	<stop  offset="1" style="stop-color:#FFC107"/>
</linearGradient>
<path class="st3" d="M17.3,48.8L0,45.4V30.8c3.7,0.7,6.9,1.1,9.6,1.2c2.7,0.1,4.9-0.3,6.8-1c1.9-0.7,3.4-1.8,4.6-3.4
	c1.2-1.6,2.2-3.6,3-6.1l17.3,3.3v89.4l-24-4.6V48.8z"/>
</svg>
