<!-- Generator: Adobe Illustrator 23.0.3, SVG Export Plug-In  -->
<svg version="1.1" xmlns="http://www.w3.org/2000/svg" xmlns:xlink="http://www.w3.org/1999/xlink" x="0px" y="0px" width="35.1px"
	 height="35.1px" viewBox="0 0 35.1 35.1" style="enable-background:new 0 0 35.1 35.1;" xml:space="preserve">
<style type="text/css">
	.st0{fill:#4C4948;}
	.st1{fill:#FFFFFF;}
	.st2{fill:#B5B5B5;}
	.st3{fill:#262626;}
</style>
<defs>
</defs>
<g>
	<path id="XMLID_8_" class="st0" d="M0,17.6c0,9.7,7.9,17.6,17.6,17.6c9.7,0,17.6-7.9,17.6-17.6C35.1,7.9,27.3,0,17.6,0
		C7.9,0,0,7.9,0,17.6z"/>
	<circle id="XMLID_7_" class="st1" cx="17.6" cy="17.6" r="8.8"/>
	<path id="XMLID_4_" class="st2" d="M17.6,31c-7.4,0-13.4-6-13.4-13.4s6-13.4,13.4-13.4c7.4,0,13.4,6,13.4,13.4S25,31,17.6,31z
		 M17.6,8.8c-4.9,0-8.8,4-8.8,8.8c0,4.9,4,8.8,8.8,8.8c4.9,0,8.8-4,8.8-8.8C26.4,12.7,22.4,8.8,17.6,8.8z"/>
	<g id="XMLID_1_">
		<path id="XMLID_3_" class="st3" d="M19.9,17.4h-4.7c-0.4,0-0.8-0.3-0.8-0.8s0.3-0.8,0.8-0.8h4.7c0.4,0,0.8,0.3,0.8,0.8
			S20.3,17.4,19.9,17.4z"/>
		<path id="XMLID_2_" class="st3" d="M19.9,14.5h-4.7c-0.4,0-0.8-0.3-0.8-0.8c0-0.4,0.3-0.8,0.8-0.8h4.7c0.4,0,0.8,0.3,0.8,0.8
			C20.6,14.2,20.3,14.5,19.9,14.5z"/>
	</g>
</g>
</svg>
