<!-- Generator: Adobe Illustrator 23.0.3, SVG Export Plug-In  -->
<svg version="1.1" xmlns="http://www.w3.org/2000/svg" xmlns:xlink="http://www.w3.org/1999/xlink" x="0px" y="0px" width="19px"
	 height="6.4px" viewBox="0 0 19 6.4" style="enable-background:new 0 0 19 6.4;" xml:space="preserve">
<style type="text/css">
	.st0{fill:#123A5F;}
</style>
<defs>
</defs>
<path id="XMLID_1_" class="st0" d="M1.8,2.7C1.5,3,1.2,3.3,0.9,3.6S0.3,4.2,0,4.5l1.8,1.8c0.3-0.3,0.5-0.7,0.8-1s0.6-0.6,1-0.8
	c3.5-2.7,8.3-2.7,11.8-0.1c0.4,0.3,0.7,0.6,1.1,0.9C16.7,5.7,17,6,17.2,6.3L19,4.4c-0.2-0.3-0.5-0.6-0.8-0.8
	c-0.3-0.3-0.7-0.6-1.1-0.9C12.7-0.9,6.3-0.9,1.8,2.7z"/>
</svg>
