<!-- Generator: Adobe Illustrator 23.0.3, SVG Export Plug-In  -->
<svg version="1.1" xmlns="http://www.w3.org/2000/svg" xmlns:xlink="http://www.w3.org/1999/xlink" x="0px" y="0px" width="33.2px"
	 height="9.3px" viewBox="0 0 33.2 9.3" style="enable-background:new 0 0 33.2 9.3;" xml:space="preserve">
<style type="text/css">
	.st0{fill:#123A5F;}
</style>
<defs>
</defs>
<path id="XMLID_1_" class="st0" d="M1.8,5.6C1.5,5.9,1.2,6.2,0.9,6.5S0.3,7.1,0,7.4l1.8,1.8c0.3-0.3,0.6-0.6,0.9-0.9
	C3,8,3.3,7.7,3.6,7.4C11,0.9,22.1,0.9,29.6,7.4c0.4,0.3,0.7,0.6,1,1c0.3,0.3,0.5,0.6,0.8,0.8l1.8-1.8c-0.3-0.3-0.5-0.6-0.8-0.8
	c-0.3-0.3-0.7-0.7-1-1C22.9-1.9,10.2-1.9,1.8,5.6z"/>
</svg>
