<!-- Generator: Adobe Illustrator 23.0.3, SVG Export Plug-In  -->
<svg version="1.1" xmlns="http://www.w3.org/2000/svg" xmlns:xlink="http://www.w3.org/1999/xlink" x="0px" y="0px" width="47.2px"
	 height="12.1px" viewBox="0 0 47.2 12.1" style="enable-background:new 0 0 47.2 12.1;" xml:space="preserve">
<style type="text/css">
	.st0{fill:#123A5F;}
</style>
<defs>
</defs>
<path id="XMLID_1_" class="st0" d="M45.4,8.4C33.1-2.8,14.1-2.8,1.8,8.5C1.5,8.8,1.2,9.1,0.9,9.4C0.6,9.7,0.3,10,0,10.3l1.8,1.8
	c0.3-0.3,0.6-0.6,0.9-0.9c0.3-0.3,0.6-0.6,0.9-0.9C14.9,0,32.3-0.1,43.6,10.3c0.3,0.3,0.7,0.6,1,1c0.3,0.3,0.5,0.5,0.8,0.8l1.8-1.8
	C47,10,46.7,9.7,46.5,9.4C46.1,9.1,45.8,8.8,45.4,8.4z"/>
</svg>
