<!-- Generator: Adobe Illustrator 23.0.3, SVG Export Plug-In  -->
<svg version="1.1" xmlns="http://www.w3.org/2000/svg" xmlns:xlink="http://www.w3.org/1999/xlink" x="0px" y="0px" width="19.5px"
	 height="6.5px" viewBox="0 0 19.5 6.5" style="enable-background:new 0 0 19.5 6.5;" xml:space="preserve">
<style type="text/css">
	.st0{fill:#FF6200;}
</style>
<defs>
</defs>
<path id="XMLID_1_" class="st0" d="M1.8,2.8c-0.3,0.3-0.7,0.6-1,0.9C0.6,4,0.3,4.3,0,4.7l1.9,1.9c0.3-0.3,0.5-0.7,0.9-1
	c0.3-0.3,0.6-0.6,1-0.9C7.2,2,12.2,1.9,15.8,4.6c0.4,0.3,0.7,0.6,1.1,0.9c0.3,0.3,0.5,0.6,0.8,0.9l1.9-1.9C19.3,4.3,19,4,18.7,3.7
	c-0.3-0.3-0.7-0.7-1.1-1C13-0.9,6.4-0.9,1.8,2.8z"/>
</svg>
