<!-- Generator: Adobe Illustrator 23.0.3, SVG Export Plug-In  -->
<svg version="1.1" xmlns="http://www.w3.org/2000/svg" xmlns:xlink="http://www.w3.org/1999/xlink" x="0px" y="0px" width="32.8px"
	 height="42.6px" viewBox="0 0 32.8 42.6" style="enable-background:new 0 0 32.8 42.6;" xml:space="preserve">
<style type="text/css">
	.st0{fill:#FF6200;}
	.st1{fill:#FFFFFF;}
</style>
<defs>
</defs>
<g id="XMLID_1_">
	<polygon id="XMLID_6_" class="st0" points="32.8,18.9 0,0 0,22 0,31 4.6,26.4 32.8,42.6 	"/>
	<g id="XMLID_2_">
		<path id="XMLID_5_" class="st1" d="M5.3,18.2l9.6,5.5c0.4,0.2,0.7,0.7,0.7,1.2c0,0.3-0.4,0.5-0.6,0.4l-9.6-5.5
			c-0.4-0.2-0.7-0.7-0.7-1.2C4.6,18.2,5,18,5.3,18.2z"/>
		<path id="XMLID_4_" class="st1" d="M5.3,14.1l16,9.3c0.4,0.2,0.7,0.7,0.7,1.2l0,0c0,0.3-0.3,0.5-0.6,0.4l-16-9.3
			c-0.4-0.2-0.7-0.7-0.7-1.2l0,0C4.6,14.1,5,13.9,5.3,14.1z"/>
		<path id="XMLID_3_" class="st1" d="M4.4,10.2c0-0.3,0.4-0.5,0.6-0.4l18.1,10.5c0.4,0.2,0.7,0.7,0.7,1.2c0,0.3-0.4,0.5-0.6,0.4
			L5,11.4C4.6,11.2,4.4,10.7,4.4,10.2z"/>
	</g>
</g>
</svg>
