<!-- Generator: Adobe Illustrator 23.0.3, SVG Export Plug-In  -->
<svg version="1.1" xmlns="http://www.w3.org/2000/svg" xmlns:xlink="http://www.w3.org/1999/xlink" x="0px" y="0px" width="54.5px"
	 height="118.5px" viewBox="0 0 54.5 118.5" style="enable-background:new 0 0 54.5 118.5;" xml:space="preserve">
<style type="text/css">
	.st0{fill:#004483;}
	.st1{fill:#FFFFFF;}
	.st2{fill:#9994C5;}
	.st3{fill:#71C8F2;}
	.st4{fill:#086DB7;}
	.st5{fill:#29BAEE;}
	.st6{fill:#005BAC;}
	.st7{fill:#2D74BB;}
	.st8{fill:#ECC99D;}
	.st9{fill:#F0D4B1;}
	.st10{fill:#676F78;}
	.st11{fill:#F3C5A2;}
	.st12{fill:none;}
	.st13{fill:#4D5BA3;}
	.st14{fill:#332285;}
	.st15{fill:#D8D9D9;}
</style>
<defs>
</defs>
<g id="XMLID_1_">
	<path id="XMLID_102_" class="st0" d="M4.9,118.2l7.9-1.8c3-0.7,5.7-4.1,3-8.9c-0.8-1.4-3-1.4-5.8-0.1L0.2,116
		C0.4,116.3,0.6,119.4,4.9,118.2z"/>
	<path id="XMLID_101_" class="st1" d="M4.8,117.3l7.9-1.8c3-0.7,4.7-3.8,3.8-6.7l0,0c-0.9-3-4.3-4.5-7.2-3.2c0,0-5.2,3.5-6.7,4.9
		C-1.8,114.3-0.4,118.5,4.8,117.3z"/>
	<path id="XMLID_100_" class="st0" d="M11.4,111c1.5,0,2.8-1.2,2.8-2.8v-8.5c0-1.5-1.2-2.8-2.8-2.8c-1.5,0-2.8,1.2-2.8,2.8v8.5
		C8.6,109.7,9.8,111,11.4,111z"/>
	<path id="XMLID_99_" class="st2" d="M11.7,77.1c0.6,3.8,2.2,9,6.3,10.7c-1.2,4.8-1.9,10.2-1.9,16.1c0,2.6-2.1,4.7-4.7,4.7
		c-2.6,0-4.7-2.1-4.7-4.7C6.7,93.5,8.4,84.6,11.7,77.1z"/>
	<path id="XMLID_98_" class="st0" d="M11.7,77.1c1.5-3.5,3.4-6.6,5.6-9.4c1.2-1.5-1.3,2.2,0,0.9c0.2,1.7,3.6,1.2,8.4,3.6
		c-4.2,4.3-6,8.6-7.8,15.5C13.9,86.1,12.3,80.9,11.7,77.1z"/>
	<path id="XMLID_97_" class="st3" d="M33.8,25.6c1.3-7.4,20.7-6.3,20.7,5.2c0,0-5.9,22.2-19.9,21.5c-0.9-0.6-1.4-1.3-1.4-2
		C33.1,46.5,32.7,32.2,33.8,25.6z"/>
	<g id="XMLID_94_">
		<path id="XMLID_96_" class="st4" d="M11.7,77.1c2-0.4,5.3-0.4,6.3,10.7c-1.2,4.8-1.9,10.2-1.9,16.1c0,2.6-2.1,4.7-4.7,4.7
			c-2.6,0-4.7-2.1-4.7-4.7C6.7,93.5,8.4,84.6,11.7,77.1z"/>
		<path id="XMLID_95_" class="st0" d="M36.7,54.2c4.5-1.5,5.3-4,5.5-4.8c0-0.2-0.1-0.4-0.1-0.6c-0.2-2.6,1.8-4.8,4.4-5
			c2.4-0.1,4.5,1.5,5,3.9c0.7,3.5-1.3,11.7-11.8,15.3c-5,1.7-11.2,6.8-14.6,10.3c-4.8-2.5-6.9-5.2-7.1-6.8
			C23.9,59.6,30.6,56.2,36.7,54.2z"/>
	</g>
	<g id="XMLID_92_">
		<path id="XMLID_93_" class="st4" d="M32,85.5c1.6,0,3.2-0.8,4-2.3c1.3-2.2,0.6-5.1-1.6-6.4c-6.8-4-11.9-7.4-15.3-10.2
			c-2.2-1.8-3.3-3-3.8-3.7c0.5-0.3,1.4-0.6,2.8-1c2.3-0.6,5.1-1.2,8.1-1.8c3.6-0.7,7.3-1.4,10.7-2.4c2.5-0.7,3.9-3.3,3.2-5.8
			c-0.7-2.5-3.3-3.9-5.8-3.2c-3,0.9-6.5,1.5-9.8,2.2c-4,0.8-7.8,1.5-10.8,2.5c-1.8,0.6-7.1,2.5-8,7.5c-1.1,6.4,5.4,12.9,24,23.9
			C30.4,85.2,31.2,85.5,32,85.5z"/>
	</g>
	<path id="XMLID_91_" class="st0" d="M24.6,60.4l6.4-5.3c0,0-0.2-1.8,0.9-3.3c3.5-4.6,5.8-3.9-2.9-2l-4.3,1c0,0-0.5,9.2-7,11.1
		L24.6,60.4z"/>
	<path id="XMLID_90_" class="st3" d="M16.7,53.1c0.5,0,1-0.1,1.5-0.4c0.9-0.4,1.7-0.8,2.4-1.2c10.3-5,12.8-14.6,18.1-20.8
		c0.9-1,1.8-2.2,3.1-3.6c1.3-1.4,1.1-3.6-0.3-4.9c-1.4-1.3-3.6-1.1-4.9,0.3c-1.2,1.4-2.2,2.6-3.1,3.6c-4.5,5.3-6.5,14.6-15.8,19.1
		c-0.8,0.4-1.6,0.8-2.4,1.2c-1.7,0.8-2.4,2.9-1.6,4.6C14.2,52.4,15.4,53.1,16.7,53.1z"/>
	<path id="XMLID_89_" class="st5" d="M54.5,30.8c0,2.1-0.8,11.1-3,21.9c-0.6,3.2-5.8,3.3-10.9,2.1c-0.7-0.2-6-2.1-6.5-2.5
		c-2.4-1.7-0.4-7.2-1-7.6c0.5-0.1,8.9,4.3,14.2-10.1C49,29.8,54.5,30.8,54.5,30.8z"/>
	<path id="XMLID_88_" class="st6" d="M50.3,23.2c0,0-1-4.2-2.1-4.7l-0.8,1.7l-2.1,1.4l-3.6,0.8l-3.2-0.1l-1.4-0.8
		c-0.1,1.3-0.3,4.6,2,5.3C42.4,27.9,45.4,22.2,50.3,23.2z"/>
	<path id="XMLID_87_" class="st0" d="M36.2,86.4c0.9,0,1.7-0.4,2.3-1.2c0.9-1.2,0.6-3-0.6-3.9l-2.9-2.1c-1.2-0.9-3-0.6-3.9,0.6
		s-0.6,3,0.6,3.9l2.9,2.1C35.1,86.2,35.7,86.4,36.2,86.4z"/>
	<g id="XMLID_83_">
		<g id="XMLID_84_">
			<path id="XMLID_85_" class="st7" d="M47.4,20.7c1-0.7,1.3-1.3,1.1-1.8c-0.2-0.5-0.9-0.8-2.2-0.9c-2.5-0.2-6.1,0.8-8,2.1
				c-1.9,1.3-1.4,2.5,1.1,2.7C41.9,23,45.5,22,47.4,20.7z"/>
		</g>
	</g>
	<g id="XMLID_79_">
		<g id="XMLID_80_">
			<path id="XMLID_81_" class="st6" d="M46.5,20.7c1.5-1,1.1-2-0.9-2.1c-2-0.1-4.8,0.6-6.3,1.6s-1.1,2,0.9,2.1
				C42.1,22.4,45,21.7,46.5,20.7z"/>
		</g>
	</g>
	<g id="XMLID_77_">
		<path id="XMLID_78_" class="st8" d="M46.2,20.9l-2.7-8.1c-0.5-1.4-2-2.2-3.4-1.7c-1.4,0.5-2.2,2-1.7,3.4l2.6,7.8
			C42.9,22.3,44.9,21.6,46.2,20.9z"/>
	</g>
	<path id="XMLID_76_" class="st9" d="M35.4,51.5c1,0,2-0.6,2.5-1.6c0.6-1.4-0.1-2.9-1.4-3.5l-9.3-3.9c-1.4-0.6-2.9,0.1-3.5,1.4
		c-0.6,1.4,0.1,2.9,1.4,3.5l9.3,3.9C34.7,51.4,35,51.5,35.4,51.5z"/>
	<path id="XMLID_75_" class="st3" d="M38.6,52.9c2.5,0,4.7-0.6,6.7-1.8c6.7-4.1,8.3-13.5,9-20.3c0.2-1.9-1.2-3.6-3.1-3.8
		c-1.9-0.2-3.6,1.2-3.8,3.1c-0.8,8.2-2.7,13.3-5.7,15.1c-2,1.2-4.8,1.1-8.5-0.4c-1.8-0.7-3.8,0.1-4.5,1.9c-0.7,1.8,0.1,3.8,1.9,4.5
		C33.5,52.4,36.2,52.9,38.6,52.9z"/>
	<path id="XMLID_74_" class="st1" d="M35.2,94.7l5.3-4.2c2.5-1.3,5.3-5.1,3.9-7.5l0,0c-1.5-2.5-5.3-3.9-7.6-2l-6,6.8
		C28.8,92.2,30.8,96.9,35.2,94.7z"/>
	<path id="XMLID_73_" class="st0" d="M35.3,94.9l6.9-3.6c2.6-1.3,3.4-7.6,3.4-7.6c-0.4-0.3-2.7-3.3-6.1-0.3l-6.1,4.9
		C29.5,91.5,30.8,97.2,35.3,94.9z"/>
	<path id="XMLID_72_" class="st10" d="M36.2,95.8l6.9-3.6c2.6-1.3,3.8-3.9,3.1-7.3c-0.4-2.2-3.5-2.5-5.8-0.6l-6.1,4.9
		C30.4,92.3,31.7,98.1,36.2,95.8z"/>
	<g id="XMLID_3_">
		<path id="XMLID_71_" class="st11" d="M32.8,12l1.1,1l-0.6,1.3c-0.6-1-1-2.2-1.2-3.4L32.8,12z"/>
		<path id="XMLID_70_" class="st9" d="M35.7,14.7l8.7,0.7l5.6-3.8l0.7-1.7c-0.1,5-4.3,9.1-9.3,9.1c-3.5,0-6.5-1.9-8.1-4.7l0.6-1.3
			L35.7,14.7z"/>
		<path id="XMLID_69_" class="st12" d="M32.9,5.6c-0.2,0.4-0.3,0.7-0.4,1.1C32.5,6.3,32.7,6,32.9,5.6z"/>
		<path id="XMLID_68_" class="st12" d="M50.1,6.2L50.1,6.2L50.1,6.2z"/>
		<path id="XMLID_67_" class="st11" d="M49.3,11.6C49.3,11.6,49.3,11.6,49.3,11.6C49.3,11.6,49.3,11.6,49.3,11.6z"/>
		<path id="XMLID_66_" class="st11" d="M47,13.2c0,0,0.1,0,0.1-0.1C47.1,13.1,47.1,13.1,47,13.2z"/>
		<path id="XMLID_65_" class="st11" d="M45.6,13.8c0.1,0,0.2-0.1,0.3-0.1C45.8,13.7,45.7,13.7,45.6,13.8z"/>
		<path id="XMLID_64_" class="st11" d="M46,13.6c0.1,0,0.1,0,0.2-0.1C46.2,13.6,46.1,13.6,46,13.6z"/>
		<path id="XMLID_63_" class="st11" d="M46.7,13.3c0,0,0.1,0,0.1-0.1C46.8,13.3,46.8,13.3,46.7,13.3z"/>
		<path id="XMLID_62_" class="st11" d="M49.5,11.5C49.5,11.4,49.5,11.4,49.5,11.5C49.5,11.4,49.5,11.4,49.5,11.5z"/>
		<path id="XMLID_61_" class="st11" d="M48.6,12.2C48.6,12.2,48.7,12.2,48.6,12.2C48.7,12.2,48.6,12.2,48.6,12.2z"/>
		<path id="XMLID_60_" class="st11" d="M48.4,12.4C48.4,12.4,48.4,12.3,48.4,12.4C48.4,12.3,48.4,12.4,48.4,12.4z"/>
		<path id="XMLID_59_" class="st11" d="M48.1,12.6C48.1,12.5,48.2,12.5,48.1,12.6C48.2,12.5,48.1,12.5,48.1,12.6z"/>
		<path id="XMLID_58_" class="st11" d="M47.8,12.7C47.8,12.7,47.9,12.7,47.8,12.7C47.9,12.7,47.8,12.7,47.8,12.7z"/>
		<path id="XMLID_57_" class="st11" d="M42.3,14.4c0.1,0,0.2,0,0.3,0C42.5,14.4,42.4,14.4,42.3,14.4z"/>
		<path id="XMLID_56_" class="st11" d="M42.7,14.4c0.1,0,0.2,0,0.3,0C42.9,14.3,42.8,14.4,42.7,14.4z"/>
		<path id="XMLID_55_" class="st11" d="M45.2,13.9c0.1,0,0.2,0,0.2-0.1C45.4,13.8,45.3,13.9,45.2,13.9z"/>
		<path id="XMLID_54_" class="st11" d="M41.9,14.4c0.1,0,0.2,0,0.3,0C42.1,14.4,42,14.4,41.9,14.4z"/>
		<path id="XMLID_53_" class="st11" d="M43.1,14.3c0.1,0,0.2,0,0.3,0C43.4,14.3,43.2,14.3,43.1,14.3z"/>
		<path id="XMLID_52_" class="st11" d="M41.3,14.4c0.1,0,0.3,0,0.4,0C41.6,14.4,41.5,14.4,41.3,14.4z"/>
		<path id="XMLID_51_" class="st11" d="M44.4,14.1c0.1,0,0.1,0,0.2-0.1C44.6,14,44.5,14.1,44.4,14.1z"/>
		<path id="XMLID_50_" class="st11" d="M44.8,14c0.1,0,0.1,0,0.2-0.1C45,14,44.9,14,44.8,14z"/>
		<path id="XMLID_49_" class="st11" d="M43.5,14.3c0.1,0,0.3,0,0.4-0.1C43.8,14.2,43.7,14.2,43.5,14.3z"/>
		<path id="XMLID_48_" class="st11" d="M44,14.2c0.1,0,0.2,0,0.2-0.1C44.2,14.1,44.1,14.2,44,14.2z"/>
		<path id="XMLID_47_" class="st11" d="M46.4,13.5c0.1,0,0.1,0,0.2-0.1C46.5,13.4,46.4,13.4,46.4,13.5z"/>
		<path id="XMLID_46_" class="st11" d="M49.8,11C49.9,11,49.9,11,49.8,11C49.9,11,49.9,11,49.8,11z"/>
		<polygon id="XMLID_45_" class="st11" points="50.3,10.3 50.3,10.3 50.3,10.3 		"/>
		<path id="XMLID_44_" class="st11" d="M49.6,11.2C49.7,11.2,49.7,11.2,49.6,11.2C49.7,11.2,49.7,11.2,49.6,11.2z"/>
		<path id="XMLID_43_" class="st13" d="M34.2,12.3L33.9,13l-1.1-1l-0.7-1.2C32,10.5,32,10.1,32,9.7C32.4,10.7,33.2,11.6,34.2,12.3z"
			/>
		<path id="XMLID_42_" class="st14" d="M32.4,6.7c-0.1,0.3-0.1,0.7-0.1,1.1c0,0.3,0,0.7,0.1,1c0.3,1.1,1,2.1,2,3l-0.3,0.5
			c-1-0.7-1.8-1.6-2.2-2.6c0,0,0,0,0-0.1C32,8.6,32.1,7.6,32.4,6.7z"/>
		<path id="XMLID_41_" class="st14" d="M42.6,14.4c0.1,0,0.1,0,0.2,0C42.7,14.4,42.6,14.4,42.6,14.4z"/>
		<path id="XMLID_40_" class="st14" d="M48.4,12.3c0.1,0,0.1-0.1,0.2-0.1C48.6,12.2,48.5,12.3,48.4,12.3z"/>
		<path id="XMLID_39_" class="st14" d="M43.5,14.3C43.5,14.3,43.5,14.3,43.5,14.3C43.5,14.3,43.5,14.3,43.5,14.3z"/>
		<path id="XMLID_38_" class="st14" d="M43,14.3c0,0,0.1,0,0.1,0C43.1,14.3,43,14.3,43,14.3z"/>
		<path id="XMLID_37_" class="st14" d="M49.7,11.2c0-0.1,0.1-0.1,0.1-0.2C49.8,11.1,49.7,11.1,49.7,11.2z"/>
		<path id="XMLID_36_" class="st14" d="M46.9,13.2c0.1,0,0.1-0.1,0.2-0.1C47,13.2,46.9,13.2,46.9,13.2z"/>
		<path id="XMLID_35_" class="st14" d="M48.7,12.1c0.2-0.2,0.4-0.3,0.6-0.5C49.1,11.8,48.9,12,48.7,12.1z"/>
		<path id="XMLID_34_" class="st14" d="M49.3,11.6c0.1-0.1,0.1-0.1,0.2-0.2C49.4,11.5,49.3,11.6,49.3,11.6z"/>
		<path id="XMLID_33_" class="st14" d="M42.2,14.4c0.1,0,0.1,0,0.2,0C42.3,14.4,42.2,14.4,42.2,14.4z"/>
		<path id="XMLID_32_" class="st14" d="M46.6,13.4c0.1,0,0.1-0.1,0.2-0.1C46.7,13.3,46.6,13.4,46.6,13.4z"/>
		<path id="XMLID_31_" class="st14" d="M41.7,14.4c0,0,0.1,0,0.1,0C41.8,14.4,41.8,14.4,41.7,14.4z"/>
		<path id="XMLID_30_" class="st14" d="M47.2,13.1c0.2-0.1,0.4-0.2,0.6-0.4C47.6,12.9,47.4,13,47.2,13.1z"/>
		<path id="XMLID_29_" class="st14" d="M49.5,11.4c0.1-0.1,0.1-0.1,0.1-0.2C49.6,11.3,49.6,11.3,49.5,11.4z"/>
		<path id="XMLID_28_" class="st14" d="M45,13.9c0.1,0,0.1,0,0.2,0C45.1,13.9,45.1,13.9,45,13.9z"/>
		<path id="XMLID_27_" class="st14" d="M45.4,13.8c0,0,0.1,0,0.1,0C45.5,13.8,45.5,13.8,45.4,13.8z"/>
		<path id="XMLID_26_" class="st14" d="M49.9,11c0.2-0.2,0.3-0.4,0.4-0.6C50.2,10.6,50,10.8,49.9,11z"/>
		<path id="XMLID_25_" class="st14" d="M46.2,13.5c0.1,0,0.1,0,0.2-0.1C46.3,13.5,46.3,13.5,46.2,13.5z"/>
		<path id="XMLID_24_" class="st14" d="M45.9,13.7c0.1,0,0.1,0,0.2-0.1C46,13.6,45.9,13.6,45.9,13.7z"/>
		<path id="XMLID_23_" class="st14" d="M44.7,14c0.1,0,0.1,0,0.2,0C44.8,14,44.7,14,44.7,14z"/>
		<path id="XMLID_22_" class="st14" d="M47.9,12.7c0.1,0,0.1-0.1,0.2-0.1C48,12.6,48,12.6,47.9,12.7z"/>
		<path id="XMLID_21_" class="st14" d="M43.9,14.2c0,0,0.1,0,0.1,0C44,14.2,44,14.2,43.9,14.2z"/>
		<path id="XMLID_20_" class="st14" d="M44.3,14.1c0.1,0,0.1,0,0.2,0C44.4,14.1,44.3,14.1,44.3,14.1z"/>
		<path id="XMLID_19_" class="st14" d="M48.2,12.5c0.1,0,0.1-0.1,0.2-0.1C48.3,12.4,48.2,12.5,48.2,12.5z"/>
		<path id="XMLID_18_" class="st6" d="M37,6.9c0,0-0.1,0-0.1-0.1l1.6-3.3l3.2-1.9l0.8-0.5L43,0.8l2.3,0.4c0.8,0.4,1.6,0.9,2.3,1.5
			c1.1,1,1.9,2.2,2.4,3.5l0,0c0.2,0.5,0.3,1,0.3,1.5c0,0.1,0,0.3,0,0.4c0,0.2-0.1,0.4-0.1,0.6c-0.7,2.7-3.8,4.8-7.8,5.1
			C41.3,11,39.3,8.3,37,6.9z"/>
		<path id="XMLID_17_" class="st6" d="M42.4,1.2l-0.8,0.5l-3.2,1.9l-1.6,3.3c-1.3-0.8-2.5-1-3.4-0.8c-0.3,0.1-0.6,0.2-0.8,0.3
			c0.1-0.2,0.2-0.5,0.3-0.7c0.5-1.1,1.3-2.1,2.2-2.9c1.7-1.5,3.9-2.4,6.3-2.4c1.4,0,2.8,0.3,4,0.9L43,0.8L42.4,1.2z"/>
		<path id="XMLID_16_" class="st9" d="M32.4,6.7c0-0.1,0.1-0.3,0.1-0.4c0.3-0.1,0.5-0.2,0.8-0.3c1-0.2,2.2,0.1,3.4,0.8
			c0,0,0.1,0,0.1,0.1c2.3,1.4,4.3,4.1,5.4,7c-0.4,0-0.7,0-1.1,0c-2.7,0-5.2-0.8-6.9-2.2c-1-0.8-1.8-1.9-2-3c-0.1-0.3-0.1-0.7-0.1-1
			C32.3,7.4,32.4,7.1,32.4,6.7z"/>
		<path id="XMLID_15_" class="st10" d="M31.7,8.9c0.1,0.3,0.2,0.5,0.3,0.8c0,0.4,0,0.8,0.1,1.2l0.7,1.2l1.1,1l0.3-0.7
			c1.8,1.3,4.3,2.1,7.1,2.1c0.1,0,0.3,0,0.4,0c0,0,0.1,0,0.1,0c0.1,0,0.2,0,0.3,0c0.1,0,0.1,0,0.2,0c0.1,0,0.2,0,0.3,0
			c0.1,0,0.1,0,0.2,0c0.1,0,0.2,0,0.3,0c0,0,0.1,0,0.1,0c0.1,0,0.2,0,0.3,0c0,0,0,0,0.1,0c0.1,0,0.3,0,0.4-0.1c0,0,0.1,0,0.1,0
			c0.1,0,0.2,0,0.2-0.1c0.1,0,0.1,0,0.2,0c0.1,0,0.1,0,0.2-0.1c0.1,0,0.1,0,0.2,0c0.1,0,0.1,0,0.2-0.1c0.1,0,0.1,0,0.2,0
			c0.1,0,0.2,0,0.2-0.1c0,0,0.1,0,0.1,0c0.1,0,0.2-0.1,0.3-0.1c0.1,0,0.1,0,0.2-0.1c0.1,0,0.1,0,0.2-0.1c0.1,0,0.1,0,0.2-0.1
			c0.1,0,0.1,0,0.2-0.1c0.1,0,0.1-0.1,0.2-0.1c0,0,0.1,0,0.1-0.1c0.1,0,0.1-0.1,0.2-0.1c0,0,0.1,0,0.1-0.1c0.2-0.1,0.4-0.2,0.6-0.4
			c0,0,0.1,0,0.1-0.1c0.1,0,0.1-0.1,0.2-0.1c0,0,0.1,0,0.1-0.1c0.1,0,0.1-0.1,0.2-0.1c0,0,0.1,0,0.1-0.1c0.1,0,0.1-0.1,0.2-0.1
			c0,0,0,0,0.1-0.1c0.2-0.2,0.4-0.3,0.6-0.5c0,0,0,0,0,0c0.1-0.1,0.1-0.1,0.2-0.2c0,0,0,0,0.1-0.1c0.1-0.1,0.1-0.1,0.1-0.2
			c0,0,0,0,0.1-0.1c0-0.1,0.1-0.1,0.1-0.2c0,0,0,0,0,0c0.2-0.2,0.3-0.4,0.4-0.6l0,0c0.1-0.2,0.3-0.5,0.4-0.7
			c0.1-0.2,0.2-0.5,0.3-0.8c0.1-0.4,0.1-0.7,0.1-1.1V10c0,3.7-4.4,6.7-9.7,6.7c-5.4,0-9.7-3-9.7-6.7C31.6,9.6,31.6,9.2,31.7,8.9z"/>
		<path id="XMLID_14_" class="st1" d="M34.5,11.8c1.7,1.3,4.1,2.2,6.9,2.2c4.5,0,8.2-2.2,8.9-5.1c0-0.2,0.1-0.4,0.1-0.6
			c0-0.1,0-0.3,0-0.4c0-0.5-0.1-1-0.3-1.5l0,0c-0.5-1.4-1.4-2.6-2.4-3.5c2.1,1.2,3.4,3,3.4,5.1c0,0.4,0,0.7-0.1,1.1
			c-0.1,0.3-0.1,0.5-0.3,0.8c-0.1,0.2-0.2,0.5-0.4,0.7l0,0c-0.1,0.2-0.3,0.4-0.4,0.6c0,0,0,0,0,0c0,0.1-0.1,0.1-0.1,0.2
			c0,0,0,0-0.1,0.1c0,0.1-0.1,0.1-0.1,0.2c0,0,0,0-0.1,0.1c-0.1,0.1-0.1,0.1-0.2,0.2c0,0,0,0,0,0c-0.2,0.2-0.4,0.3-0.6,0.5
			c0,0,0,0-0.1,0.1c-0.1,0-0.1,0.1-0.2,0.1c0,0-0.1,0-0.1,0.1c-0.1,0-0.1,0.1-0.2,0.1c0,0-0.1,0-0.1,0.1c-0.1,0-0.1,0.1-0.2,0.1
			c0,0-0.1,0-0.1,0.1c-0.2,0.1-0.4,0.2-0.6,0.4c0,0-0.1,0-0.1,0.1c-0.1,0-0.1,0.1-0.2,0.1c0,0-0.1,0-0.1,0.1c-0.1,0-0.1,0.1-0.2,0.1
			c-0.1,0-0.1,0-0.2,0.1c-0.1,0-0.1,0-0.2,0.1c-0.1,0-0.1,0-0.2,0.1c-0.1,0-0.1,0-0.2,0.1c-0.1,0-0.2,0.1-0.3,0.1c0,0-0.1,0-0.1,0
			c-0.1,0-0.2,0-0.2,0.1c-0.1,0-0.1,0-0.2,0c-0.1,0-0.1,0-0.2,0.1c-0.1,0-0.1,0-0.2,0c-0.1,0-0.1,0-0.2,0.1c-0.1,0-0.1,0-0.2,0
			c-0.1,0-0.2,0-0.2,0.1c0,0-0.1,0-0.1,0c-0.1,0-0.3,0-0.4,0.1c0,0,0,0-0.1,0c-0.1,0-0.2,0-0.3,0c0,0-0.1,0-0.1,0
			c-0.1,0-0.2,0-0.3,0c-0.1,0-0.1,0-0.2,0c-0.1,0-0.2,0-0.3,0c-0.1,0-0.1,0-0.2,0c-0.1,0-0.2,0-0.3,0c0,0-0.1,0-0.1,0
			c-0.1,0-0.3,0-0.4,0c-2.8,0-5.3-0.8-7.1-2.1L34.5,11.8z"/>
		<g id="XMLID_11_">
			<path id="XMLID_13_" class="st1" d="M40.2,1c1.8-1.2,3.5-1.3,4.7-0.6l0,0l1.8,1l-1,0L45.1,1c-0.9,0-2,0.3-3.1,1
				c-3.6,2.3-6.5,7.6-6.6,12l-1.7-1C33.7,8.6,36.6,3.3,40.2,1z"/>
			<path id="XMLID_12_" class="st10" d="M47.9,3c-0.9-0.9-1.7-1.4-2.5-1.4c-1-0.1-2.2,0.1-3.5,0.9c-3.3,2.1-6.1,7.2-6.2,11.3
				L35.3,14c0.1-4.4,3.1-9.7,6.6-12c1.4-0.9,2.7-1.2,3.7-0.9C46.7,1.3,47.5,1.9,47.9,3L47.9,3z"/>
		</g>
		<g id="XMLID_7_">
			<path id="XMLID_10_" class="st15" d="M27.3,9.1l4.3-2.5l0,0l0,0l0,0c0.3-0.2,0.6-0.1,0.7,0.1c1.3,2.8,2.6,4.1,7.4,5
				c1.3,0.2,1.1,1.3,1.1,2.3v2.6c0,0.4-0.2,0.7-0.5,0.9h0l0,0c0,0-0.1,0-0.1,0.1l-3.9,2.3L33.3,18l2.9-2.7l-4.1-2.8
				c-0.5-0.3-0.9-0.9-1-1.5L27.3,9.1z"/>
			<path id="XMLID_9_" class="st1" d="M28.1,14.8l7.4,5c0.6,0.4,1.4-0.1,1.4-0.9v-2.6c0-0.9-0.4-1.8-1.1-2.3l-7.4-5
				C27.8,8.6,27,9.1,27,10v2.6C27,13.5,27.4,14.4,28.1,14.8z"/>
			<path id="XMLID_8_" class="st10" d="M28.3,14.6l6.9,4.7c0.5,0.3,1.2,0.4,1.2-0.8v-2.2c0-0.8-0.4-1.5-0.9-1.9l-6.9-4.7
				c-0.7-0.5-1.2,0-1.2,0.8v2.2C27.4,13.4,27.7,14.2,28.3,14.6z"/>
		</g>
		<path id="XMLID_6_" class="st1" d="M47.2,15.4c0-0.8,0.6-1.9,1.3-2.3c0.4-0.2,0.7-0.2,0.9-0.1l0.6,0.3l-0.3,0.1c0,0.1,0,0.2,0,0.4
			c0,0.8-0.6,1.9-1.3,2.3c-0.2,0.1-0.3,0.2-0.5,0.2l0.2,0.3l-0.6-0.4C47.3,16.1,47.2,15.8,47.2,15.4z"/>
		<path id="XMLID_4_" class="st10" d="M47.8,15.8c0,0.8,0.6,1.2,1.3,0.7c0.7-0.4,1.3-1.5,1.3-2.3c0-0.8-0.6-1.2-1.3-0.7
			C48.4,13.9,47.8,14.9,47.8,15.8z"/>
	</g>
	<path id="XMLID_2_" class="st8" d="M8.1,51.7l7.3-4.4c1.3-0.8,2.9-0.4,3.7,0.9c0.8,1.3,0.4,2.9-0.9,3.7l-2.5,1.5v2
		c0,0.9-0.7,1.6-1.6,1.6c-0.9,0-1.6-0.7-1.6-1.6v-0.1l-1.6,1c-0.4,0.3-0.9,0.4-1.4,0.4c-0.9,0-1.8-0.5-2.3-1.3
		C6.4,54.1,6.8,52.5,8.1,51.7z"/>
</g>
</svg>
