<!-- Generator: Adobe Illustrator 23.0.3, SVG Export Plug-In  -->
<svg version="1.1" xmlns="http://www.w3.org/2000/svg" xmlns:xlink="http://www.w3.org/1999/xlink" x="0px" y="0px" width="31.8px"
	 height="58.9px" viewBox="0 0 31.8 58.9" style="enable-background:new 0 0 31.8 58.9;" xml:space="preserve">
<style type="text/css">
	.st0{fill:#29BAEE;}
	.st1{fill:#FFFFFF;}
</style>
<defs>
</defs>
<polygon id="XMLID_4_" class="st0" points="0,40.7 31.3,58.9 31.8,18.2 0.5,0 "/>
<polygon id="XMLID_3_" class="st1" points="0,40.7 31.3,58.9 31.8,22 0.5,3.8 "/>
<path id="XMLID_2_" class="st0" d="M8.5,40l14.5,8.4c1,0.6,1.7,0.2,1.8-0.9l0,0c0-1-0.8-2.3-1.7-2.9L8.5,36.3
	c-1-0.6-1.7-0.2-1.8,0.9l0,0C6.8,38.2,7.5,39.5,8.5,40z"/>
<path id="XMLID_1_" class="st0" d="M9.1,22.6c0.1-4.9,3.2-7.1,7-4.9c3.8,2.2,6.8,8,6.7,12.9c-0.1,4.9-3.2,7.1-7,4.9
	C12.1,33.3,9,27.5,9.1,22.6z"/>
</svg>
