<!-- Generator: Adobe Illustrator 23.0.3, SVG Export Plug-In  -->
<svg version="1.1" xmlns="http://www.w3.org/2000/svg" xmlns:xlink="http://www.w3.org/1999/xlink" x="0px" y="0px"
	 width="219.33px" height="351.62px" viewBox="0 0 219.33 351.62" style="enable-background:new 0 0 219.33 351.62;"
	 xml:space="preserve">
<style type="text/css">
	.st0{fill:url(#SVGID_1_);}
	.st1{fill:url(#SVGID_2_);}
	.st2{fill:#A7BD48;}
	.st3{fill:#385A36;}
	.st4{fill:url(#SVGID_3_);}
	.st5{fill:url(#SVGID_4_);}
	.st6{fill:url(#SVGID_5_);}
	.st7{fill:url(#SVGID_6_);}
	.st8{fill:url(#SVGID_7_);}
	.st9{fill:url(#SVGID_8_);}
	.st10{fill:url(#SVGID_9_);}
	.st11{fill:url(#SVGID_10_);}
</style>
<defs>
</defs>
<linearGradient id="SVGID_1_" gradientUnits="userSpaceOnUse" x1="99.7034" y1="312.7248" x2="99.7034" y2="-20.1592">
	<stop  offset="0" style="stop-color:#426120"/>
	<stop  offset="1" style="stop-color:#1F4A6E"/>
</linearGradient>
<rect x="92.42" class="st0" width="14.57" height="351.62"/>
<linearGradient id="SVGID_2_" gradientUnits="userSpaceOnUse" x1="144.8821" y1="308.1756" x2="144.8821" y2="5.86">
	<stop  offset="0" style="stop-color:#426120"/>
	<stop  offset="1" style="stop-color:#1F4A6E"/>
</linearGradient>
<rect x="122" class="st1" width="45.76" height="351.62"/>
<rect x="122" class="st2" width="12.75" height="351.62"/>
<path class="st3" d="M219.33,126.03v2.96c-10.84,5.6-23.69,32.01-35.27,37.27c-13.38,6.06-20.48,30.4-20.48,30.4l-2.14-6.27
	c0,0,8.78-24.61,18.64-26.8c9.87-2.19,22.57-18.48,30.08-28.99C213.62,129.8,216.85,127.32,219.33,126.03z"/>
<linearGradient id="SVGID_3_" gradientUnits="userSpaceOnUse" x1="79.7483" y1="274.1205" x2="176.9277" y2="445.1559">
	<stop  offset="0.0104" style="stop-color:#B0BD24"/>
	<stop  offset="1" style="stop-color:#1F4A6E"/>
</linearGradient>
<path class="st4" d="M130.17,300.35c0,0,0.12,7.94-8.93,12.9c-9.05,4.96-17.98,3.31-15.59,11.91c2.39,8.6-17.1,4.63-21.12,13.56
	c-4.02,8.93,6.54,12.9,6.54,12.9h55.83c0,0,10.19-11.24,0-21.83C136.7,319.2,130.17,300.35,130.17,300.35z"/>
<linearGradient id="SVGID_4_" gradientUnits="userSpaceOnUse" x1="144.4982" y1="306.3575" x2="201.3481" y2="441.4369">
	<stop  offset="0.0104" style="stop-color:#B0BD24"/>
	<stop  offset="1" style="stop-color:#1F4A6E"/>
</linearGradient>
<path class="st5" d="M168.16,315.22c0,0,0.08,5.63-5.56,9.16c-5.63,3.52-11.19,2.35-9.7,8.45c1.49,6.1-10.64,3.29-13.15,9.63
	c-2.5,6.34,4.07,9.16,4.07,9.16h34.75c0,0,6.34-7.98,0-15.5C172.23,328.6,168.16,315.22,168.16,315.22z"/>
<linearGradient id="SVGID_5_" gradientUnits="userSpaceOnUse" x1="50.0798" y1="125.5763" x2="177.8222" y2="-88.1966">
	<stop  offset="0" style="stop-color:#6B9E34"/>
	<stop  offset="0.1351" style="stop-color:#61933C"/>
	<stop  offset="1" style="stop-color:#1F4A6E"/>
</linearGradient>
<path class="st6" d="M3.18,0C3.87,2.61,5.3,5.67,7.7,9.24c0,0-18.36,10.52,1.62,24.02c19.97,13.5,44.67-2.69,50.42,13.77
	c5.73,16.47,40.29,19.71,53.24,3.51c3.39-4.24,3.19-7.87,1.26-11.01c5.99,1.02,11.95,1.69,17.26,1.98
	c19.8,1.09,19-10.54,23.36-17.96c3.61-0.99,6.13-2.67,6.98-5.37c1.72-0.45,3.8-0.64,6.35-0.5c23.49,1.28-19.84,31.92,21.87,37.05
	c27.59,3.39,26.12-3.14,29.27-9.94V0H3.18z"/>
</svg>
