<!-- Generator: Adobe Illustrator 23.0.3, SVG Export Plug-In  -->
<svg version="1.1" xmlns="http://www.w3.org/2000/svg" xmlns:xlink="http://www.w3.org/1999/xlink" x="0px" y="0px" width="27.28px"
	 height="98.45px" viewBox="0 0 27.28 98.45" style="enable-background:new 0 0 27.28 98.45;" xml:space="preserve">
<style type="text/css">
	.st0{fill:#D18E49;}
	.st1{fill:#EEA886;}
	.st2{fill:#E8A764;}
	.st3{fill:#202338;}
	.st4{fill:#E55353;}
	.st5{fill:#A77860;}
</style>
<defs>
</defs>
<g>
	<g>
		<path class="st0" d="M18.09,89.77c0,0-13.81,4.53-16.91,5.01c0,0-0.64,0.12,0-1.67c0.64-1.79,5.23-27.61,3.89-35.69
			C3.73,49.34,18.09,89.77,18.09,89.77z"/>
	</g>
	<g>
		<g>
			<path class="st1" d="M12.21,20.28l-4.1,2.37C8.09,21.44,7.59,20,7.13,18.92c-0.42-0.97-0.8-1.66-0.8-1.66l1.77-1.24l2.71-1.89
				L12.21,20.28z"/>
		</g>
	</g>
	<g>
		<g>
			<path class="st2" d="M18.09,58.41c0,0.94-6.36,0.5-11.64-0.03c-0.6-10.56-1.38-19.81-2.01-22.57
				c-1.64-7.08,1.13-12.22,1.13-12.22c0,0,0,0,0.01-0.01c1.15-1.15,2.54-2.11,3.79-2.84c1.89-1.11,3.47-1.71,3.47-1.71
				s1.7,1.51,3.02,3.76c0,0.01,0.01,0.01,0.01,0.01c0,0,0,0,0,0c0.58,0.99,1.09,2.12,1.35,3.32c0.3,1.41-0.04,3.48-0.53,5.78
				c-0.89,4.16-2.29,9.07-1.29,12.19C16.92,48.95,18.09,56.8,18.09,58.41z"/>
		</g>
	</g>
	<g>
		<g>
			<g>
				<path class="st3" d="M0.39,9.34c0,0-1.95-5.03,2.88-7.46c4.83-2.43,9.58-3.19,11.8,1.99c2.23,5.18-2.02,12.45,2.23,15.17
					c4.25,2.72,9.58,6.89,9.27,11.15c-0.31,4.26-5.71,4.35-6.63,2.56c-0.93-1.79-9.58-11.75-9.16-18.16L0.39,9.34z"/>
			</g>
		</g>
		<g>
			<g>
				<path class="st4" d="M12.82,19.03c0,0-5.71,2.17-8.39,5.86C1.75,28.58-0.09,30.76,0,33.03s1.87,3.41,1.99,3.7
					c0.12,0.28,2.01,5.16,1.84,6.93c-0.16,1.77-3.8,14.18-3.8,14.18s18.05,2.18,18.05,0.57c0-1.61-1.17-9.46-2.71-14.31
					c-1.55-4.86,2.68-14.03,1.83-17.97C16.35,22.18,12.82,19.03,12.82,19.03z"/>
			</g>
		</g>
		<g>
			<g>
				<path class="st5" d="M10.43,15.01c-0.03,0.05-1.71,2.96-3.3,3.91c-0.42-0.97-0.8-1.66-0.8-1.66l1.77-1.24L10.43,15.01z"/>
			</g>
		</g>
		<g>
			<g>
				<path class="st1" d="M1.05,6.04c0,0-0.48,2.08-0.04,4.06c0.44,1.98-0.85,3.49-0.57,4.06c0.2,0.42,1.43,0.5,1.83,0.98
					c0.4,0.48,1.16,4.83,4.58,2.55s4.52-3.08,4.52-5.01S17.39-4.46,1.05,6.04z"/>
			</g>
		</g>
		<g>
			<g>
				<path class="st3" d="M0.15,8.45c0,0,4.3,1.6,7.05,0.37c2.74-1.23,1.31,5.63,3.75,5.94c2.45,0.31,3.39-10.41,2.71-11.36
					c-0.68-0.95,0.38-2.56-3.75-2.56C5.78,0.84,1.77,1.3,0.15,8.45z"/>
			</g>
		</g>
		<g>
			<g>
				<path class="st1" d="M6.61,8.68C6.64,7.8,7.84,6.98,8.47,7.8c0.63,0.82,0.57,3.29-0.79,3.47C6.59,11.41,6.61,8.68,6.61,8.68z"/>
			</g>
		</g>
		<g>
			<path class="st2" d="M27.28,85.15c0,0-22.09,17.21-20.23,12.48c1.14-2.89,0.57-23.03-0.44-39.9C5.96,47.01,5.14,37.6,4.46,34.81
				c-1.74-7.2,1.2-12.42,1.2-12.42c0,0,0,0,0.01-0.01c1.48-1.51,2.83-2.41,4.03-2.89c4.27-1.71,6.73,1.81,6.91,2.08
				c0.01,0.01,0.01,0.01,0.01,0.01c0,0,0,0,0,0v0c0.01,0.09,0.76,4.67,0.88,5.81c0.04,0.38,0.04,1.7-0.01,3.44
				c-0.02,0.63-0.07,1.24-0.13,1.84c-0.17,1.57-0.45,3.1-0.62,4.89c-0.12,1.36-0.18,2.88-0.06,4.68
				C16.93,46.13,27.28,85.15,27.28,85.15z"/>
		</g>
		<g>
			<g>
				<path class="st2" d="M5.56,23.59c0,0,0.55-2.45-0.21-2.76c-0.76-0.32,6.27-3.15,6.27-3.15l1.2,1.35
					C12.82,19.03,12.89,19.35,5.56,23.59z"/>
			</g>
		</g>
	</g>
</g>
</svg>
