<!-- Generator: Adobe Illustrator 23.0.3, SVG Export Plug-In  -->
<svg version="1.1" xmlns="http://www.w3.org/2000/svg" xmlns:xlink="http://www.w3.org/1999/xlink" x="0px" y="0px" width="33.17px"
	 height="89.86px" viewBox="0 0 33.17 89.86" style="enable-background:new 0 0 33.17 89.86;" xml:space="preserve">
<style type="text/css">
	.st0{fill:#EA957F;}
	.st1{fill:#383635;}
	.st2{fill:#EEA987;}
	.st3{fill:#FAB46C;}
</style>
<defs>
</defs>
<g>
	<g>
		<g>
			<path class="st0" d="M2.44,26.53c0,0-1.05,0.21-1.38,0.24c-0.33,0.03,0.04,0.66,0.44,0.7C1.89,27.52,2.44,26.53,2.44,26.53z"/>
		</g>
	</g>
	<g>
		
			<rect x="16.05" y="17.76" transform="matrix(0.9044 -0.4266 0.4266 0.9044 -22.091 12.3795)" class="st1" width="1.07" height="75.47"/>
	</g>
	<g>
		<g>
			<path class="st2" d="M2.97,31.67c0,0,0.48,0.01,0.7-0.09c0,0,0.37-0.21,0.65-0.35c0.09-0.04,0.16-0.08,0.21-0.09
				c0.22-0.07,0.72-0.17,1.19-0.49c0.47-0.32,2.02-1.62,2.02-1.62l-0.88-1.52L6.19,26.3c0,0-3.15-0.11-3.62,0.13
				c-0.05,0.02-0.09,0.05-0.13,0.08c-0.38,0.25-0.56,0.59-0.75,0.75c-0.07,0.06-0.7,0.67-0.68,0.93c0.03,0.36,0.19,0.61,0.41,0.73
				c0,0,0.08,0.71,0.43,1.04c0,0,0.06,0.66,0.61,0.95C2.45,30.91,2.58,31.57,2.97,31.67z"/>
		</g>
	</g>
	<g>
		<g>
			<path class="st2" d="M6.19,26.3c0,0,3.8-2.21,4.54-2.85c0.74-0.63,1.67,2.66,1.67,2.66s-3.31,1.8-4.66,2.91
				C6.39,30.14,6.19,26.3,6.19,26.3z"/>
		</g>
	</g>
	<g>
		<g>
			<path class="st3" d="M12.86,1.38c0,0,6.62,10.81,7.32,13.62c0.63,2.54,1.4,4.25-2.77,7.75c-4.15,3.48-8.86,6.32-8.86,6.32
				l-2.53-3.56c0,0,9.25-5.4,8.86-9.08C14.78,15.59,8.18,5.04,8.18,5.04S6.29,1.92,8.81,0.47C11.34-0.98,12.86,1.38,12.86,1.38z"/>
		</g>
	</g>
</g>
</svg>
