<!-- Generator: Adobe Illustrator 23.0.3, SVG Export Plug-In  -->
<svg version="1.1" xmlns="http://www.w3.org/2000/svg" xmlns:xlink="http://www.w3.org/1999/xlink" x="0px" y="0px"
	 width="119.12px" height="28.91px" viewBox="0 0 119.12 28.91" style="enable-background:new 0 0 119.12 28.91;"
	 xml:space="preserve">
<style type="text/css">
	.st0{fill:#D4E9F9;}
</style>
<defs>
</defs>
<path class="st0" d="M119.12,28.91c0-5.59-5.65-10.12-12.62-10.12c-1.58,0-3.1,0.23-4.49,0.66c-1.84-4.46-6.41-7.63-11.76-7.63
	c-3.33,0-6.37,1.23-8.62,3.24c-3.53-2.06-7.87-3.28-12.57-3.28c-2.68,0-5.24,0.39-7.6,1.12C58.34,5.35,50.6,0,41.55,0
	c-10.06,0-18.5,6.61-20.76,15.51c-1.74-0.66-3.63-1.02-5.62-1.02C6.79,14.49,0,20.95,0,28.91H119.12z"/>
</svg>
