<!-- Generator: Adobe Illustrator 23.0.3, SVG Export Plug-In  -->
<svg version="1.1" xmlns="http://www.w3.org/2000/svg" xmlns:xlink="http://www.w3.org/1999/xlink" x="0px" y="0px" width="20.69px"
	 height="63.45px" viewBox="0 0 20.69 63.45" style="enable-background:new 0 0 20.69 63.45;" xml:space="preserve">
<style type="text/css">
	.st0{fill:#34395C;}
	.st1{fill:#EEA886;}
</style>
<defs>
</defs>
<g>
	<g>
		<g>
			<path class="st0" d="M13.97,51.64c0,0-0.79,2.06-1.6,4.63c-0.81,2.57-3.24,4.22-3.62,4.65c-0.38,0.42-2.04,2.11-0.82,2.49
				c1.22,0.39,6.78-2.44,8.43-4.25c0,0,1.08-1.78,1.21-1.88c0.13-0.1,0.77,0.56,0.77,0.56l1.43-0.75c0,0,0.61-0.35,0.84-0.57
				c0.23-0.21-0.07-1.62-0.13-1.76c-0.06-0.16-1.94-3.65-3.33-4.53C15.76,49.35,13.97,51.64,13.97,51.64z"/>
		</g>
	</g>
	<g>
		<g>
			<path class="st1" d="M12.75,48.06c0,0,1.24,3.28,1.27,3.84c0.03,0.56,2.45,0.88,3.22-1.38c0,0-1.4-4.12-1.33-4.21
				C15.99,46.21,12.75,48.06,12.75,48.06z"/>
		</g>
	</g>
	<g>
		<g>
			<path class="st0" d="M11.07,27.49c-2-3.21,0.34-20.53-1.14-26.05C8.45-4.07-0.69,7.63,0.04,12.34c0,0,2.15,14.01,2.48,15.37
				c0.33,1.35,2.11,5.42,2.42,5.68c0.31,0.26,7.44,14.83,7.62,15.6c0,0,2.93-1,3.76-2.15C16.32,46.84,13.15,30.82,11.07,27.49z"/>
		</g>
	</g>
</g>
</svg>
