<!-- Generator: Adobe Illustrator 23.0.3, SVG Export Plug-In  -->
<svg version="1.1" xmlns="http://www.w3.org/2000/svg" xmlns:xlink="http://www.w3.org/1999/xlink" x="0px" y="0px"
	 width="109.12px" height="25.27px" viewBox="0 0 109.12 25.27" style="enable-background:new 0 0 109.12 25.27;"
	 xml:space="preserve">
<style type="text/css">
	.st0{fill:url(#SVGID_1_);}
	.st1{fill:url(#SVGID_2_);}
</style>
<defs>
</defs>
<linearGradient id="SVGID_1_" gradientUnits="userSpaceOnUse" x1="0" y1="12.6372" x2="109.125" y2="12.6372">
	<stop  offset="0" style="stop-color:#B1E1E6"/>
	<stop  offset="1" style="stop-color:#F2F5FF"/>
</linearGradient>
<path class="st0" d="M109.12,25.27c0-8.25-8.34-14.99-18.63-14.99c-2.34,0-4.57,0.34-6.63,0.97C81.14,4.67,74.4,0,66.5,0
	c-8.77,0-16.13,5.77-18.11,13.53c-1.51-0.57-3.17-0.89-4.9-0.89c-2.38,0-4.62,0.6-6.55,1.65c-2.18-3.96-6.53-6.67-11.56-6.67
	c-6.14,0-11.3,4.04-12.68,9.47c-1.06-0.4-2.22-0.62-3.43-0.62c-5.11,0-9.26,3.94-9.26,8.8H109.12z"/>
</svg>
