<!-- Generator: Adobe Illustrator 23.0.3, SVG Export Plug-In  -->
<svg version="1.1" xmlns="http://www.w3.org/2000/svg" xmlns:xlink="http://www.w3.org/1999/xlink" x="0px" y="0px" width="40.05px"
	 height="72.93px" viewBox="0 0 40.05 72.93" style="enable-background:new 0 0 40.05 72.93;" xml:space="preserve">
<style type="text/css">
	.st0{fill:#EEA886;}
	.st1{fill:#E8A764;}
	.st2{fill:#383635;}
	.st3{fill:#DB9C7C;}
</style>
<defs>
</defs>
<g>
	<g>
		<g>
			<g>
				<path class="st0" d="M24.83,8.38c0,0-1.19-0.7-1.37-1.12c-0.19-0.41-1-0.82-1.24-1.16c-0.24-0.34-0.56-1.5-0.93-1.74
					c-0.15-0.1-1.3-0.35-1.58-0.59c-0.28-0.24-0.79-0.79-0.99-0.54c-0.2,0.25,0.12,0.88,0.12,0.88s-0.27-0.2-0.51-0.03
					c-0.47,0.33-0.42,0.69-0.42,0.69s-0.41-0.02-0.57,0.16c-0.36,0.41-0.3,0.76-0.3,0.76s-0.29,0.1-0.47,0.43
					c-0.22,0.42,0.03,0.81,0.03,0.81s-0.4,0.46-0.24,0.76c0.16,0.3,0.43,0.43,0.61,0.63c0.18,0.2,2.31,1.39,4.12,1.59
					c1.81,0.2,3.12,1.07,3.12,1.07L24.83,8.38z"/>
			</g>
		</g>
	</g>
	<g>
		<g>
			<path class="st1" d="M36.31,7.83c0,0-0.28,1.82-1,1.87C34.6,9.76,23.96,7.2,23.96,7.2s-1.11,0.62-1.61,3.21
				c0,0,13.56,5.95,14.97,5.27c1.41-0.68,2.75-4.05,2.75-4.05L36.31,7.83z"/>
		</g>
	</g>
	<g>
		
			<rect x="-26.98" y="35.93" transform="matrix(0.2711 -0.9626 0.9626 0.2711 -27.2569 36.9363)" class="st2" width="75.47" height="1.07"/>
	</g>
	<g>
		<g>
			<path class="st3" d="M19.08,4.15c0,0,1.8,1.05,1.91,1.76c0.11,0.71-0.56,0.36-0.56,0.36s0.67,0.33,0.46,0.9
				c-0.2,0.57-0.97,0.13-0.97,0.13s0.44,0.39,0.04,0.87c-0.4,0.48-0.96-0.03-0.96-0.03s0.2,0.86-0.58,0.84
				c-1.31-0.04-2.07-1.28-2.07-1.28s-0.19-0.32,0.24-0.76c0,0-0.5-0.79,0.43-1.26c0,0,0.01-1.07,0.86-0.94
				C17.89,4.74,18,3.64,19.08,4.15z"/>
		</g>
	</g>
</g>
</svg>
