<!-- Generator: Adobe Illustrator 23.0.3, SVG Export Plug-In  -->
<svg version="1.1" xmlns="http://www.w3.org/2000/svg" xmlns:xlink="http://www.w3.org/1999/xlink" x="0px" y="0px" width="54.04px"
	 height="64.79px" viewBox="0 0 54.04 64.79" style="enable-background:new 0 0 54.04 64.79;" xml:space="preserve">
<style type="text/css">
	.st0{fill:#3C4169;}
	.st1{fill:#EEA886;}
	.st2{fill:#494F80;}
</style>
<defs>
</defs>
<g>
	<g>
		<g>
			<path class="st0" d="M12.7,56.64c0,0-2.02,0.89-4.41,2.14c-2.39,1.25-5.28,0.69-5.85,0.72c-0.57,0.03-2.93,0.05-2.35,1.18
				c0.59,1.13,6.51,3.08,8.97,2.97c0,0,2.02-0.5,2.18-0.47c0.16,0.02,0.15,0.94,0.15,0.94l1.54,0.48c0,0,0.68,0.18,0.99,0.19
				c0.32,0.01,1.06-1.17,1.15-1.33c0.08-0.15,1.21-3.96,0.86-5.56C15.58,56.29,12.7,56.64,12.7,56.64z"/>
		</g>
	</g>
	<g>
		<g>
			<path class="st1" d="M14.37,53.25c0,0-1.44,3.19-1.82,3.61c-0.37,0.42,1.11,2.36,3.25,1.31c0,0,1.93-3.9,2.05-3.91
				C17.97,54.24,14.37,53.25,14.37,53.25z"/>
		</g>
	</g>
	<g>
		<g>
			<path class="st2" d="M38.2,3.51c0,0-10.29,16.81-11.56,19.45c-1.27,2.63-1.13,5.04-1.78,6.12c-0.65,1.08-10.88,23.94-10.88,23.94
				s2.61,1.74,4.47,1.11c0,0,9.4-13.32,11.15-15.9c1.64-2.42,2.4-10.04,4.64-11.45C36.49,25.37,53.02,9.33,54,2.74
				C54.97-3.85,38.2,3.51,38.2,3.51z"/>
		</g>
	</g>
</g>
</svg>
